<svg xmlns="http://www.w3.org/2000/svg" xmlns:xlink="http://www.w3.org/1999/xlink" width="500" zoomAndPan="magnify" viewBox="0 0 375 374.999991" height="500" preserveAspectRatio="xMidYMid meet" version="1.0"><defs><g/><clipPath id="770af1959d"><path d="M 110.777344 11.6875 L 264.527344 11.6875 L 264.527344 165.4375 L 110.777344 165.4375 Z M 110.777344 11.6875 " clip-rule="nonzero"/></clipPath></defs><g clip-path="url(#770af1959d)"><path fill="#ffffff" d="M 256.839844 129.5625 L 118.464844 129.5625 C 117.054688 129.5625 115.902344 128.410156 115.902344 127 L 115.902344 119.3125 L 259.402344 119.3125 L 259.402344 127 C 259.402344 128.410156 258.253906 129.5625 256.839844 129.5625 Z M 200.464844 144.9375 L 174.839844 144.9375 L 174.839844 134.6875 L 200.464844 134.6875 Z M 215.839844 150.0625 C 217.253906 150.0625 218.402344 151.210938 218.402344 152.625 L 218.402344 160.3125 L 156.902344 160.3125 L 156.902344 152.625 C 156.902344 151.210938 158.054688 150.0625 159.464844 150.0625 Z M 118.464844 37.3125 L 128.714844 37.3125 L 128.714844 39.875 L 121.027344 39.875 C 119.617188 39.875 118.464844 41.023438 118.464844 42.4375 L 118.464844 109.0625 C 118.464844 110.472656 119.617188 111.625 121.027344 111.625 L 254.277344 111.625 C 255.691406 111.625 256.839844 110.472656 256.839844 109.0625 L 256.839844 42.4375 C 256.839844 41.023438 255.691406 39.875 254.277344 39.875 L 246.589844 39.875 L 246.589844 37.3125 L 256.839844 37.3125 C 258.253906 37.3125 259.402344 38.460938 259.402344 39.875 L 259.402344 114.1875 L 115.902344 114.1875 L 115.902344 39.875 C 115.902344 38.460938 117.054688 37.3125 118.464844 37.3125 Z M 136.402344 16.8125 L 238.902344 16.8125 C 240.316406 16.8125 241.464844 17.960938 241.464844 19.375 L 241.464844 27.0625 L 133.839844 27.0625 L 133.839844 19.375 C 133.839844 17.960938 134.992188 16.8125 136.402344 16.8125 Z M 136.402344 101.375 L 238.902344 101.375 C 243.148438 101.375 246.589844 97.929688 246.589844 93.6875 L 246.589844 45 L 251.714844 45 L 251.714844 106.5 L 123.589844 106.5 L 123.589844 45 L 128.714844 45 L 128.714844 93.6875 C 128.714844 97.929688 132.160156 101.375 136.402344 101.375 Z M 241.464844 93.6875 C 241.464844 95.097656 240.316406 96.25 238.902344 96.25 L 136.402344 96.25 C 134.992188 96.25 133.839844 95.097656 133.839844 93.6875 L 133.839844 32.1875 L 241.464844 32.1875 Z M 256.839844 32.1875 L 246.589844 32.1875 L 246.589844 19.375 C 246.589844 15.128906 243.148438 11.6875 238.902344 11.6875 L 136.402344 11.6875 C 132.160156 11.6875 128.714844 15.128906 128.714844 19.375 L 128.714844 32.1875 L 118.464844 32.1875 C 114.222656 32.1875 110.777344 35.628906 110.777344 39.875 L 110.777344 127 C 110.777344 131.242188 114.222656 134.6875 118.464844 134.6875 L 169.714844 134.6875 L 169.714844 144.9375 L 159.464844 144.9375 C 155.222656 144.9375 151.777344 148.378906 151.777344 152.625 L 151.777344 162.875 C 151.777344 164.285156 152.929688 165.4375 154.339844 165.4375 L 220.964844 165.4375 C 222.378906 165.4375 223.527344 164.285156 223.527344 162.875 L 223.527344 152.625 C 223.527344 148.378906 220.085938 144.9375 215.839844 144.9375 L 205.589844 144.9375 L 205.589844 134.6875 L 256.839844 134.6875 C 261.085938 134.6875 264.527344 131.242188 264.527344 127 L 264.527344 39.875 C 264.527344 35.628906 261.085938 32.1875 256.839844 32.1875 " fill-opacity="1" fill-rule="nonzero"/></g><path fill="#ffffff" d="M 246.589844 121.875 L 241.464844 121.875 C 240.054688 121.875 238.902344 123.023438 238.902344 124.4375 C 238.902344 125.847656 240.054688 127 241.464844 127 L 246.589844 127 C 248.003906 127 249.152344 125.847656 249.152344 124.4375 C 249.152344 123.023438 248.003906 121.875 246.589844 121.875 " fill-opacity="1" fill-rule="nonzero"/><path fill="#ffffff" d="M 144.089844 19.375 L 138.964844 19.375 L 138.964844 24.5 L 144.089844 24.5 L 144.089844 19.375 " fill-opacity="1" fill-rule="nonzero"/><path fill="#ffffff" d="M 154.339844 19.375 L 149.214844 19.375 L 149.214844 24.5 L 154.339844 24.5 L 154.339844 19.375 " fill-opacity="1" fill-rule="nonzero"/><path fill="#ffffff" d="M 164.589844 19.375 L 159.464844 19.375 L 159.464844 24.5 L 164.589844 24.5 L 164.589844 19.375 " fill-opacity="1" fill-rule="nonzero"/><path fill="#ffffff" d="M 151.777344 42.4375 L 156.902344 42.4375 C 158.316406 42.4375 159.464844 41.285156 159.464844 39.875 C 159.464844 38.460938 158.316406 37.3125 156.902344 37.3125 L 151.777344 37.3125 C 150.367188 37.3125 149.214844 38.460938 149.214844 39.875 C 149.214844 41.285156 150.367188 42.4375 151.777344 42.4375 " fill-opacity="1" fill-rule="nonzero"/><path fill="#ffffff" d="M 164.589844 42.4375 L 167.152344 42.4375 C 168.566406 42.4375 169.714844 41.285156 169.714844 39.875 C 169.714844 38.460938 168.566406 37.3125 167.152344 37.3125 L 164.589844 37.3125 C 163.179688 37.3125 162.027344 38.460938 162.027344 39.875 C 162.027344 41.285156 163.179688 42.4375 164.589844 42.4375 " fill-opacity="1" fill-rule="nonzero"/><path fill="#ffffff" d="M 151.777344 75.75 L 156.902344 75.75 C 158.316406 75.75 159.464844 74.597656 159.464844 73.1875 C 159.464844 71.773438 158.316406 70.625 156.902344 70.625 L 151.777344 70.625 C 150.367188 70.625 149.214844 71.773438 149.214844 73.1875 C 149.214844 74.597656 150.367188 75.75 151.777344 75.75 " fill-opacity="1" fill-rule="nonzero"/><path fill="#ffffff" d="M 169.714844 73.1875 C 169.714844 71.773438 168.566406 70.625 167.152344 70.625 L 164.589844 70.625 C 163.179688 70.625 162.027344 71.773438 162.027344 73.1875 C 162.027344 74.597656 163.179688 75.75 164.589844 75.75 L 167.152344 75.75 C 168.566406 75.75 169.714844 74.597656 169.714844 73.1875 " fill-opacity="1" fill-rule="nonzero"/><path fill="#ffffff" d="M 154.339844 47.5625 C 154.339844 48.972656 155.492188 50.125 156.902344 50.125 L 172.277344 50.125 C 173.691406 50.125 174.839844 48.972656 174.839844 47.5625 C 174.839844 46.148438 173.691406 45 172.277344 45 L 156.902344 45 C 155.492188 45 154.339844 46.148438 154.339844 47.5625 " fill-opacity="1" fill-rule="nonzero"/><path fill="#ffffff" d="M 156.902344 57.8125 L 172.277344 57.8125 C 173.691406 57.8125 174.839844 56.660156 174.839844 55.25 C 174.839844 53.835938 173.691406 52.6875 172.277344 52.6875 L 156.902344 52.6875 C 155.492188 52.6875 154.339844 53.835938 154.339844 55.25 C 154.339844 56.660156 155.492188 57.8125 156.902344 57.8125 " fill-opacity="1" fill-rule="nonzero"/><path fill="#ffffff" d="M 182.527344 57.8125 L 213.277344 57.8125 C 214.691406 57.8125 215.839844 56.660156 215.839844 55.25 C 215.839844 53.835938 214.691406 52.6875 213.277344 52.6875 L 182.527344 52.6875 C 181.117188 52.6875 179.964844 53.835938 179.964844 55.25 C 179.964844 56.660156 181.117188 57.8125 182.527344 57.8125 " fill-opacity="1" fill-rule="nonzero"/><path fill="#ffffff" d="M 156.902344 65.5 L 172.277344 65.5 C 173.691406 65.5 174.839844 64.347656 174.839844 62.9375 C 174.839844 61.523438 173.691406 60.375 172.277344 60.375 L 156.902344 60.375 C 155.492188 60.375 154.339844 61.523438 154.339844 62.9375 C 154.339844 64.347656 155.492188 65.5 156.902344 65.5 " fill-opacity="1" fill-rule="nonzero"/><path fill="#ffffff" d="M 182.527344 65.5 L 223.527344 65.5 C 224.941406 65.5 226.089844 64.347656 226.089844 62.9375 C 226.089844 61.523438 224.941406 60.375 223.527344 60.375 L 182.527344 60.375 C 181.117188 60.375 179.964844 61.523438 179.964844 62.9375 C 179.964844 64.347656 181.117188 65.5 182.527344 65.5 " fill-opacity="1" fill-rule="nonzero"/><path fill="#ffffff" d="M 159.464844 78.3125 L 156.902344 78.3125 C 155.492188 78.3125 154.339844 79.460938 154.339844 80.875 C 154.339844 82.285156 155.492188 83.4375 156.902344 83.4375 L 159.464844 83.4375 C 160.878906 83.4375 162.027344 82.285156 162.027344 80.875 C 162.027344 79.460938 160.878906 78.3125 159.464844 78.3125 " fill-opacity="1" fill-rule="nonzero"/><path fill="#ffffff" d="M 190.214844 78.3125 L 169.714844 78.3125 C 168.304688 78.3125 167.152344 79.460938 167.152344 80.875 C 167.152344 82.285156 168.304688 83.4375 169.714844 83.4375 L 190.214844 83.4375 C 191.628906 83.4375 192.777344 82.285156 192.777344 80.875 C 192.777344 79.460938 191.628906 78.3125 190.214844 78.3125 " fill-opacity="1" fill-rule="nonzero"/><path fill="#ffffff" d="M 215.839844 78.3125 L 200.464844 78.3125 C 199.054688 78.3125 197.902344 79.460938 197.902344 80.875 C 197.902344 82.285156 199.054688 83.4375 200.464844 83.4375 L 215.839844 83.4375 C 217.253906 83.4375 218.402344 82.285156 218.402344 80.875 C 218.402344 79.460938 217.253906 78.3125 215.839844 78.3125 " fill-opacity="1" fill-rule="nonzero"/><path fill="#ffffff" d="M 159.464844 86 L 156.902344 86 C 155.492188 86 154.339844 87.148438 154.339844 88.5625 C 154.339844 89.972656 155.492188 91.125 156.902344 91.125 L 159.464844 91.125 C 160.878906 91.125 162.027344 89.972656 162.027344 88.5625 C 162.027344 87.148438 160.878906 86 159.464844 86 " fill-opacity="1" fill-rule="nonzero"/><path fill="#ffffff" d="M 190.214844 86 L 169.714844 86 C 168.304688 86 167.152344 87.148438 167.152344 88.5625 C 167.152344 89.972656 168.304688 91.125 169.714844 91.125 L 190.214844 91.125 C 191.628906 91.125 192.777344 89.972656 192.777344 88.5625 C 192.777344 87.148438 191.628906 86 190.214844 86 " fill-opacity="1" fill-rule="nonzero"/><path fill="#ffffff" d="M 205.589844 86 L 200.464844 86 C 199.054688 86 197.902344 87.148438 197.902344 88.5625 C 197.902344 89.972656 199.054688 91.125 200.464844 91.125 L 205.589844 91.125 C 207.003906 91.125 208.152344 89.972656 208.152344 88.5625 C 208.152344 87.148438 207.003906 86 205.589844 86 " fill-opacity="1" fill-rule="nonzero"/><path fill="#ffffff" d="M 182.527344 50.125 L 187.652344 50.125 C 189.066406 50.125 190.214844 48.972656 190.214844 47.5625 C 190.214844 46.148438 189.066406 45 187.652344 45 L 182.527344 45 C 181.117188 45 179.964844 46.148438 179.964844 47.5625 C 179.964844 48.972656 181.117188 50.125 182.527344 50.125 " fill-opacity="1" fill-rule="nonzero"/><g fill="#fffbf0" fill-opacity="1"><g transform="translate(3.778755, 215.498835)"><g><path d="M 21.984375 0 L 20.78125 -3.984375 L 10.890625 -3.984375 L 9.6875 0 L 0.40625 0 L 10.71875 -28.265625 L 21.28125 -28.265625 L 31.59375 0 Z M 12.78125 -10.3125 L 18.890625 -10.3125 L 15.9375 -20.375 L 15.78125 -20.375 Z M 12.78125 -10.3125 "/></g></g></g><g fill="#fffbf0" fill-opacity="1"><g transform="translate(35.734536, 215.498835)"><g><path d="M 17.421875 -22.1875 C 19.941406 -22.1875 21.828125 -21.488281 23.078125 -20.09375 C 24.335938 -18.695312 24.96875 -16.679688 24.96875 -14.046875 L 24.96875 0 L 16.796875 0 L 16.796875 -13.0625 C 16.796875 -13.988281 16.554688 -14.734375 16.078125 -15.296875 C 15.597656 -15.859375 14.921875 -16.140625 14.046875 -16.140625 C 13.035156 -16.140625 12.210938 -15.8125 11.578125 -15.15625 C 10.953125 -14.5 10.640625 -13.691406 10.640625 -12.734375 L 10.640625 0 L 2.46875 0 L 2.46875 -21.6875 L 9.15625 -21.6875 L 9.6875 -18.40625 C 10.539062 -19.550781 11.65625 -20.46875 13.03125 -21.15625 C 14.414062 -21.84375 15.878906 -22.1875 17.421875 -22.1875 Z M 17.421875 -22.1875 "/></g></g></g><g fill="#fffbf0" fill-opacity="1"><g transform="translate(63.131072, 215.498835)"><g><path d="M 16.921875 -21.6875 L 16.921875 -16.140625 L 12.328125 -16.140625 L 12.328125 -7.890625 C 12.328125 -6.898438 12.488281 -6.175781 12.8125 -5.71875 C 13.144531 -5.269531 13.75 -5.046875 14.625 -5.046875 L 16.921875 -5.046875 L 16.921875 -0.25 C 16.265625 -0.03125 15.414062 0.144531 14.375 0.28125 C 13.332031 0.425781 12.429688 0.5 11.671875 0.5 C 9.253906 0.5 7.394531 0.0625 6.09375 -0.8125 C 4.800781 -1.695312 4.15625 -3.191406 4.15625 -5.296875 L 4.15625 -16.140625 L 1.109375 -16.140625 L 1.109375 -21.6875 L 4.484375 -21.6875 L 6.25 -28.265625 L 12.328125 -28.265625 L 12.328125 -21.6875 Z M 16.921875 -21.6875 "/></g></g></g><g fill="#fffbf0" fill-opacity="1"><g transform="translate(81.368055, 215.498835)"><g><path d="M 13.671875 -22.1875 C 17.484375 -22.1875 20.476562 -21.21875 22.65625 -19.28125 C 24.832031 -17.351562 25.921875 -14.539062 25.921875 -10.84375 C 25.921875 -7.144531 24.832031 -4.328125 22.65625 -2.390625 C 20.476562 -0.460938 17.484375 0.5 13.671875 0.5 C 9.867188 0.5 6.882812 -0.457031 4.71875 -2.375 C 2.5625 -4.300781 1.484375 -7.125 1.484375 -10.84375 C 1.484375 -14.570312 2.5625 -17.394531 4.71875 -19.3125 C 6.882812 -21.226562 9.867188 -22.1875 13.671875 -22.1875 Z M 13.671875 -16.640625 C 10.992188 -16.640625 9.65625 -15.09375 9.65625 -12 L 9.65625 -9.65625 C 9.65625 -6.582031 10.992188 -5.046875 13.671875 -5.046875 C 16.390625 -5.046875 17.75 -6.582031 17.75 -9.65625 L 17.75 -12 C 17.75 -15.09375 16.390625 -16.640625 13.671875 -16.640625 Z M 13.671875 -16.640625 "/></g></g></g><g fill="#fffbf0" fill-opacity="1"><g transform="translate(108.764591, 215.498835)"><g><path d="M 2.75 -24.234375 L 2.75 -29.78125 L 10.921875 -29.78125 L 10.921875 -24.234375 Z M 2.75 0 L 2.75 -21.6875 L 10.921875 -21.6875 L 10.921875 0 Z M 2.75 0 "/></g></g></g><g fill="#fffbf0" fill-opacity="1"><g transform="translate(122.442329, 215.498835)"><g><path d="M 17.421875 -22.1875 C 19.941406 -22.1875 21.828125 -21.488281 23.078125 -20.09375 C 24.335938 -18.695312 24.96875 -16.679688 24.96875 -14.046875 L 24.96875 0 L 16.796875 0 L 16.796875 -13.0625 C 16.796875 -13.988281 16.554688 -14.734375 16.078125 -15.296875 C 15.597656 -15.859375 14.921875 -16.140625 14.046875 -16.140625 C 13.035156 -16.140625 12.210938 -15.8125 11.578125 -15.15625 C 10.953125 -14.5 10.640625 -13.691406 10.640625 -12.734375 L 10.640625 0 L 2.46875 0 L 2.46875 -21.6875 L 9.15625 -21.6875 L 9.6875 -18.40625 C 10.539062 -19.550781 11.65625 -20.46875 13.03125 -21.15625 C 14.414062 -21.84375 15.878906 -22.1875 17.421875 -22.1875 Z M 17.421875 -22.1875 "/></g></g></g><g fill="#fffbf0" fill-opacity="1"><g transform="translate(149.838864, 215.498835)"><g><path d="M 13.671875 -22.1875 C 17.648438 -22.1875 20.6875 -21.253906 22.78125 -19.390625 C 24.875 -17.523438 25.921875 -14.675781 25.921875 -10.84375 L 25.921875 -9.453125 L 9.65625 -9.453125 C 9.65625 -7.890625 10.003906 -6.707031 10.703125 -5.90625 C 11.398438 -5.113281 12.5 -4.71875 14 -4.71875 C 15.375 -4.71875 16.382812 -5.003906 17.03125 -5.578125 C 17.675781 -6.160156 18 -6.929688 18 -7.890625 L 25.921875 -7.890625 C 25.921875 -5.253906 24.921875 -3.195312 22.921875 -1.71875 C 20.921875 -0.238281 18.003906 0.5 14.171875 0.5 C 10.148438 0.5 7.03125 -0.4375 4.8125 -2.3125 C 2.59375 -4.195312 1.484375 -7.039062 1.484375 -10.84375 C 1.484375 -14.570312 2.5625 -17.394531 4.71875 -19.3125 C 6.882812 -21.226562 9.867188 -22.1875 13.671875 -22.1875 Z M 14 -16.96875 C 11.425781 -16.96875 9.988281 -15.75 9.6875 -13.3125 L 17.65625 -13.3125 C 17.65625 -14.4375 17.332031 -15.328125 16.6875 -15.984375 C 16.050781 -16.640625 15.15625 -16.96875 14 -16.96875 Z M 14 -16.96875 "/></g></g></g><g fill="#fffbf0" fill-opacity="1"><g transform="translate(177.2354, 215.498835)"><g/></g></g><g fill="#fffbf0" fill-opacity="1"><g transform="translate(190.913138, 215.498835)"><g><path d="M 3.046875 -28.265625 L 25.875 -28.265625 L 25.875 -21.484375 L 12.125 -21.484375 L 12.125 -16.640625 L 23.953125 -16.640625 L 23.953125 -10.140625 L 12.125 -10.140625 L 12.125 0 L 3.046875 0 Z M 3.046875 -28.265625 "/></g></g></g><g fill="#fffbf0" fill-opacity="1"><g transform="translate(218.309685, 215.498835)"><g><path d="M 13.671875 -22.1875 C 17.648438 -22.1875 20.6875 -21.253906 22.78125 -19.390625 C 24.875 -17.523438 25.921875 -14.675781 25.921875 -10.84375 L 25.921875 -9.453125 L 9.65625 -9.453125 C 9.65625 -7.890625 10.003906 -6.707031 10.703125 -5.90625 C 11.398438 -5.113281 12.5 -4.71875 14 -4.71875 C 15.375 -4.71875 16.382812 -5.003906 17.03125 -5.578125 C 17.675781 -6.160156 18 -6.929688 18 -7.890625 L 25.921875 -7.890625 C 25.921875 -5.253906 24.921875 -3.195312 22.921875 -1.71875 C 20.921875 -0.238281 18.003906 0.5 14.171875 0.5 C 10.148438 0.5 7.03125 -0.4375 4.8125 -2.3125 C 2.59375 -4.195312 1.484375 -7.039062 1.484375 -10.84375 C 1.484375 -14.570312 2.5625 -17.394531 4.71875 -19.3125 C 6.882812 -21.226562 9.867188 -22.1875 13.671875 -22.1875 Z M 14 -16.96875 C 11.425781 -16.96875 9.988281 -15.75 9.6875 -13.3125 L 17.65625 -13.3125 C 17.65625 -14.4375 17.332031 -15.328125 16.6875 -15.984375 C 16.050781 -16.640625 15.15625 -16.96875 14 -16.96875 Z M 14 -16.96875 "/></g></g></g><g fill="#fffbf0" fill-opacity="1"><g transform="translate(245.706221, 215.498835)"><g><path d="M 15.65625 -22.21875 C 16.28125 -22.21875 16.835938 -22.140625 17.328125 -21.984375 C 17.828125 -21.835938 18.078125 -21.753906 18.078125 -21.734375 L 18.078125 -14.875 L 15.453125 -14.875 C 13.753906 -14.875 12.523438 -14.429688 11.765625 -13.546875 C 11.015625 -12.671875 10.640625 -11.375 10.640625 -9.65625 L 10.640625 0 L 2.46875 0 L 2.46875 -21.6875 L 9.15625 -21.6875 L 9.6875 -18.40625 C 10.1875 -19.664062 10.96875 -20.613281 12.03125 -21.25 C 13.101562 -21.894531 14.3125 -22.21875 15.65625 -22.21875 Z M 15.65625 -22.21875 "/></g></g></g><g fill="#fffbf0" fill-opacity="1"><g transform="translate(263.943204, 215.498835)"><g><path d="M 13.671875 -22.1875 C 17.648438 -22.1875 20.6875 -21.253906 22.78125 -19.390625 C 24.875 -17.523438 25.921875 -14.675781 25.921875 -10.84375 L 25.921875 -9.453125 L 9.65625 -9.453125 C 9.65625 -7.890625 10.003906 -6.707031 10.703125 -5.90625 C 11.398438 -5.113281 12.5 -4.71875 14 -4.71875 C 15.375 -4.71875 16.382812 -5.003906 17.03125 -5.578125 C 17.675781 -6.160156 18 -6.929688 18 -7.890625 L 25.921875 -7.890625 C 25.921875 -5.253906 24.921875 -3.195312 22.921875 -1.71875 C 20.921875 -0.238281 18.003906 0.5 14.171875 0.5 C 10.148438 0.5 7.03125 -0.4375 4.8125 -2.3125 C 2.59375 -4.195312 1.484375 -7.039062 1.484375 -10.84375 C 1.484375 -14.570312 2.5625 -17.394531 4.71875 -19.3125 C 6.882812 -21.226562 9.867188 -22.1875 13.671875 -22.1875 Z M 14 -16.96875 C 11.425781 -16.96875 9.988281 -15.75 9.6875 -13.3125 L 17.65625 -13.3125 C 17.65625 -14.4375 17.332031 -15.328125 16.6875 -15.984375 C 16.050781 -16.640625 15.15625 -16.96875 14 -16.96875 Z M 14 -16.96875 "/></g></g></g><g fill="#fffbf0" fill-opacity="1"><g transform="translate(291.33974, 215.498835)"><g><path d="M 18.234375 0 L 17.546875 -3.078125 C 15.953125 -0.691406 13.648438 0.5 10.640625 0.5 C 7.710938 0.5 5.453125 -0.457031 3.859375 -2.375 C 2.273438 -4.300781 1.484375 -7.140625 1.484375 -10.890625 C 1.484375 -14.609375 2.273438 -17.421875 3.859375 -19.328125 C 5.453125 -21.234375 7.710938 -22.1875 10.640625 -22.1875 C 13.128906 -22.1875 15.15625 -21.347656 16.71875 -19.671875 L 16.71875 -29.78125 L 24.890625 -29.78125 L 24.890625 0 Z M 13.1875 -16.140625 C 10.832031 -16.140625 9.65625 -14.726562 9.65625 -11.90625 L 9.65625 -9.734375 C 9.65625 -6.941406 10.832031 -5.546875 13.1875 -5.546875 C 14.394531 -5.546875 15.296875 -5.96875 15.890625 -6.8125 C 16.492188 -7.664062 16.796875 -8.773438 16.796875 -10.140625 L 16.796875 -11.5 C 16.796875 -12.875 16.492188 -13.988281 15.890625 -14.84375 C 15.296875 -15.707031 14.394531 -16.140625 13.1875 -16.140625 Z M 13.1875 -16.140625 "/></g></g></g><g fill="#fffbf0" fill-opacity="1"><g transform="translate(318.736276, 215.498835)"><g><path d="M 17.375 -0.65625 C 16.25 2.382812 14.867188 4.691406 13.234375 6.265625 C 11.609375 7.835938 9.332031 8.625 6.40625 8.625 C 4.625 8.625 3.050781 8.378906 1.6875 7.890625 L 1.6875 3 L 4.96875 3 C 7.019531 3 8.238281 2 8.625 0 L 0 -21.6875 L 8.796875 -21.6875 L 12.9375 -7.265625 L 13.234375 -7.265625 L 17.046875 -21.6875 L 25.09375 -21.6875 Z M 17.375 -0.65625 "/></g></g></g><g fill="#fffbf0" fill-opacity="1"><g transform="translate(343.832641, 215.498835)"><g><path d="M 13.671875 -22.1875 C 17.648438 -22.1875 20.6875 -21.253906 22.78125 -19.390625 C 24.875 -17.523438 25.921875 -14.675781 25.921875 -10.84375 L 25.921875 -9.453125 L 9.65625 -9.453125 C 9.65625 -7.890625 10.003906 -6.707031 10.703125 -5.90625 C 11.398438 -5.113281 12.5 -4.71875 14 -4.71875 C 15.375 -4.71875 16.382812 -5.003906 17.03125 -5.578125 C 17.675781 -6.160156 18 -6.929688 18 -7.890625 L 25.921875 -7.890625 C 25.921875 -5.253906 24.921875 -3.195312 22.921875 -1.71875 C 20.921875 -0.238281 18.003906 0.5 14.171875 0.5 C 10.148438 0.5 7.03125 -0.4375 4.8125 -2.3125 C 2.59375 -4.195312 1.484375 -7.039062 1.484375 -10.84375 C 1.484375 -14.570312 2.5625 -17.394531 4.71875 -19.3125 C 6.882812 -21.226562 9.867188 -22.1875 13.671875 -22.1875 Z M 14 -16.96875 C 11.425781 -16.96875 9.988281 -15.75 9.6875 -13.3125 L 17.65625 -13.3125 C 17.65625 -14.4375 17.332031 -15.328125 16.6875 -15.984375 C 16.050781 -16.640625 15.15625 -16.96875 14 -16.96875 Z M 14 -16.96875 "/></g></g></g><g fill="#fffbf0" fill-opacity="1"><g transform="translate(62.562477, 242.460759)"><g><path d="M 6.859375 -11.046875 C 5.523438 -11.046875 4.472656 -10.601562 3.703125 -9.71875 C 2.929688 -8.832031 2.546875 -7.613281 2.546875 -6.0625 C 2.546875 -4.476562 2.914062 -3.253906 3.65625 -2.390625 C 4.40625 -1.523438 5.46875 -1.09375 6.84375 -1.09375 C 7.695312 -1.09375 8.664062 -1.242188 9.75 -1.546875 L 9.75 -0.3125 C 8.90625 0.0078125 7.863281 0.171875 6.625 0.171875 C 4.84375 0.171875 3.460938 -0.367188 2.484375 -1.453125 C 1.515625 -2.546875 1.03125 -4.085938 1.03125 -6.078125 C 1.03125 -7.328125 1.265625 -8.421875 1.734375 -9.359375 C 2.203125 -10.304688 2.878906 -11.035156 3.765625 -11.546875 C 4.648438 -12.054688 5.6875 -12.3125 6.875 -12.3125 C 8.15625 -12.3125 9.269531 -12.078125 10.21875 -11.609375 L 9.625 -10.40625 C 8.707031 -10.832031 7.785156 -11.046875 6.859375 -11.046875 Z M 6.859375 -11.046875 "/></g></g></g><g fill="#fffbf0" fill-opacity="1"><g transform="translate(75.79765, 242.460759)"><g><path d="M 9.3125 -4.5625 C 9.3125 -3.070312 8.9375 -1.910156 8.1875 -1.078125 C 7.445312 -0.242188 6.414062 0.171875 5.09375 0.171875 C 4.28125 0.171875 3.554688 -0.0195312 2.921875 -0.40625 C 2.296875 -0.789062 1.8125 -1.335938 1.46875 -2.046875 C 1.125 -2.765625 0.953125 -3.601562 0.953125 -4.5625 C 0.953125 -6.039062 1.320312 -7.191406 2.0625 -8.015625 C 2.800781 -8.847656 3.832031 -9.265625 5.15625 -9.265625 C 6.425781 -9.265625 7.4375 -8.835938 8.1875 -7.984375 C 8.9375 -7.140625 9.3125 -6 9.3125 -4.5625 Z M 2.375 -4.5625 C 2.375 -3.394531 2.609375 -2.503906 3.078125 -1.890625 C 3.546875 -1.285156 4.226562 -0.984375 5.125 -0.984375 C 6.03125 -0.984375 6.71875 -1.285156 7.1875 -1.890625 C 7.65625 -2.503906 7.890625 -3.394531 7.890625 -4.5625 C 7.890625 -5.71875 7.65625 -6.59375 7.1875 -7.1875 C 6.71875 -7.789062 6.023438 -8.09375 5.109375 -8.09375 C 4.210938 -8.09375 3.53125 -7.796875 3.0625 -7.203125 C 2.601562 -6.609375 2.375 -5.726562 2.375 -4.5625 Z M 2.375 -4.5625 "/></g></g></g><g fill="#fffbf0" fill-opacity="1"><g transform="translate(88.576489, 242.460759)"><g><path d="M 7.6875 0 L 7.6875 -5.890625 C 7.6875 -6.628906 7.515625 -7.179688 7.171875 -7.546875 C 6.835938 -7.910156 6.3125 -8.09375 5.59375 -8.09375 C 4.644531 -8.09375 3.945312 -7.832031 3.5 -7.3125 C 3.0625 -6.800781 2.84375 -5.953125 2.84375 -4.765625 L 2.84375 0 L 1.46875 0 L 1.46875 -9.09375 L 2.578125 -9.09375 L 2.8125 -7.859375 L 2.875 -7.859375 C 3.15625 -8.304688 3.550781 -8.648438 4.0625 -8.890625 C 4.570312 -9.140625 5.140625 -9.265625 5.765625 -9.265625 C 6.859375 -9.265625 7.679688 -9 8.234375 -8.46875 C 8.785156 -7.9375 9.0625 -7.09375 9.0625 -5.9375 L 9.0625 0 Z M 7.6875 0 "/></g></g></g><g fill="#fffbf0" fill-opacity="1"><g transform="translate(101.52127, 242.460759)"><g><path d="M 5.09375 0.171875 C 3.78125 0.171875 2.757812 -0.234375 2.03125 -1.046875 C 1.3125 -1.859375 0.953125 -3.003906 0.953125 -4.484375 C 0.953125 -6.015625 1.316406 -7.191406 2.046875 -8.015625 C 2.785156 -8.847656 3.832031 -9.265625 5.1875 -9.265625 C 5.625 -9.265625 6.0625 -9.21875 6.5 -9.125 C 6.9375 -9.03125 7.28125 -8.921875 7.53125 -8.796875 L 7.109375 -7.625 C 6.804688 -7.738281 6.472656 -7.835938 6.109375 -7.921875 C 5.742188 -8.003906 5.425781 -8.046875 5.15625 -8.046875 C 3.300781 -8.046875 2.375 -6.863281 2.375 -4.5 C 2.375 -3.382812 2.597656 -2.523438 3.046875 -1.921875 C 3.503906 -1.328125 4.175781 -1.03125 5.0625 -1.03125 C 5.820312 -1.03125 6.597656 -1.195312 7.390625 -1.53125 L 7.390625 -0.3125 C 6.785156 0.0078125 6.019531 0.171875 5.09375 0.171875 Z M 5.09375 0.171875 "/></g></g></g><g fill="#fffbf0" fill-opacity="1"><g transform="translate(112.126303, 242.460759)"><g><path d="M 5.296875 0.171875 C 3.953125 0.171875 2.890625 -0.238281 2.109375 -1.0625 C 1.335938 -1.882812 0.953125 -3.019531 0.953125 -4.46875 C 0.953125 -5.9375 1.3125 -7.101562 2.03125 -7.96875 C 2.757812 -8.832031 3.734375 -9.265625 4.953125 -9.265625 C 6.085938 -9.265625 6.988281 -8.890625 7.65625 -8.140625 C 8.320312 -7.390625 8.65625 -6.398438 8.65625 -5.171875 L 8.65625 -4.296875 L 2.375 -4.296875 C 2.40625 -3.234375 2.675781 -2.421875 3.1875 -1.859375 C 3.695312 -1.304688 4.421875 -1.03125 5.359375 -1.03125 C 6.335938 -1.03125 7.304688 -1.238281 8.265625 -1.65625 L 8.265625 -0.421875 C 7.773438 -0.210938 7.3125 -0.0625 6.875 0.03125 C 6.4375 0.125 5.910156 0.171875 5.296875 0.171875 Z M 4.9375 -8.109375 C 4.195312 -8.109375 3.609375 -7.867188 3.171875 -7.390625 C 2.742188 -6.921875 2.492188 -6.265625 2.421875 -5.421875 L 7.171875 -5.421875 C 7.171875 -6.285156 6.976562 -6.945312 6.59375 -7.40625 C 6.207031 -7.875 5.65625 -8.109375 4.9375 -8.109375 Z M 4.9375 -8.109375 "/></g></g></g><g fill="#fffbf0" fill-opacity="1"><g transform="translate(124.175008, 242.460759)"><g><path d="M 5.6875 0.171875 C 5.101562 0.171875 4.566406 0.0625 4.078125 -0.15625 C 3.585938 -0.375 3.175781 -0.710938 2.84375 -1.171875 L 2.734375 -1.171875 C 2.804688 -0.640625 2.84375 -0.132812 2.84375 0.34375 L 2.84375 4.078125 L 1.46875 4.078125 L 1.46875 -9.09375 L 2.578125 -9.09375 L 2.765625 -7.859375 L 2.84375 -7.859375 C 3.195312 -8.347656 3.609375 -8.703125 4.078125 -8.921875 C 4.546875 -9.148438 5.082031 -9.265625 5.6875 -9.265625 C 6.894531 -9.265625 7.828125 -8.851562 8.484375 -8.03125 C 9.140625 -7.207031 9.46875 -6.050781 9.46875 -4.5625 C 9.46875 -3.0625 9.132812 -1.894531 8.46875 -1.0625 C 7.800781 -0.238281 6.875 0.171875 5.6875 0.171875 Z M 5.5 -8.09375 C 4.5625 -8.09375 3.882812 -7.832031 3.46875 -7.3125 C 3.0625 -6.800781 2.851562 -5.984375 2.84375 -4.859375 L 2.84375 -4.5625 C 2.84375 -3.28125 3.054688 -2.363281 3.484375 -1.8125 C 3.910156 -1.257812 4.59375 -0.984375 5.53125 -0.984375 C 6.3125 -0.984375 6.925781 -1.300781 7.375 -1.9375 C 7.820312 -2.570312 8.046875 -3.453125 8.046875 -4.578125 C 8.046875 -5.710938 7.820312 -6.582031 7.375 -7.1875 C 6.925781 -7.789062 6.300781 -8.09375 5.5 -8.09375 Z M 5.5 -8.09375 "/></g></g></g><g fill="#fffbf0" fill-opacity="1"><g transform="translate(137.103191, 242.460759)"><g><path d="M 4.40625 -0.96875 C 4.644531 -0.96875 4.878906 -0.984375 5.109375 -1.015625 C 5.335938 -1.054688 5.515625 -1.097656 5.640625 -1.140625 L 5.640625 -0.078125 C 5.492188 -0.00390625 5.273438 0.0507812 4.984375 0.09375 C 4.691406 0.144531 4.429688 0.171875 4.203125 0.171875 C 2.441406 0.171875 1.5625 -0.753906 1.5625 -2.609375 L 1.5625 -8.03125 L 0.25 -8.03125 L 0.25 -8.6875 L 1.5625 -9.265625 L 2.140625 -11.203125 L 2.9375 -11.203125 L 2.9375 -9.09375 L 5.578125 -9.09375 L 5.578125 -8.03125 L 2.9375 -8.03125 L 2.9375 -2.671875 C 2.9375 -2.117188 3.066406 -1.695312 3.328125 -1.40625 C 3.585938 -1.113281 3.945312 -0.96875 4.40625 -0.96875 Z M 4.40625 -0.96875 "/></g></g></g><g fill="#fffbf0" fill-opacity="1"><g transform="translate(145.617389, 242.460759)"><g><path d="M 5.296875 0.171875 C 3.953125 0.171875 2.890625 -0.238281 2.109375 -1.0625 C 1.335938 -1.882812 0.953125 -3.019531 0.953125 -4.46875 C 0.953125 -5.9375 1.3125 -7.101562 2.03125 -7.96875 C 2.757812 -8.832031 3.734375 -9.265625 4.953125 -9.265625 C 6.085938 -9.265625 6.988281 -8.890625 7.65625 -8.140625 C 8.320312 -7.390625 8.65625 -6.398438 8.65625 -5.171875 L 8.65625 -4.296875 L 2.375 -4.296875 C 2.40625 -3.234375 2.675781 -2.421875 3.1875 -1.859375 C 3.695312 -1.304688 4.421875 -1.03125 5.359375 -1.03125 C 6.335938 -1.03125 7.304688 -1.238281 8.265625 -1.65625 L 8.265625 -0.421875 C 7.773438 -0.210938 7.3125 -0.0625 6.875 0.03125 C 6.4375 0.125 5.910156 0.171875 5.296875 0.171875 Z M 4.9375 -8.109375 C 4.195312 -8.109375 3.609375 -7.867188 3.171875 -7.390625 C 2.742188 -6.921875 2.492188 -6.265625 2.421875 -5.421875 L 7.171875 -5.421875 C 7.171875 -6.285156 6.976562 -6.945312 6.59375 -7.40625 C 6.207031 -7.875 5.65625 -8.109375 4.9375 -8.109375 Z M 4.9375 -8.109375 "/></g></g></g><g fill="#fffbf0" fill-opacity="1"><g transform="translate(157.666094, 242.460759)"><g><path d="M 2.75 -9.09375 L 2.75 -3.203125 C 2.75 -2.453125 2.914062 -1.894531 3.25 -1.53125 C 3.59375 -1.164062 4.125 -0.984375 4.84375 -0.984375 C 5.800781 -0.984375 6.5 -1.242188 6.9375 -1.765625 C 7.375 -2.285156 7.59375 -3.132812 7.59375 -4.3125 L 7.59375 -9.09375 L 8.96875 -9.09375 L 8.96875 0 L 7.84375 0 L 7.640625 -1.21875 L 7.5625 -1.21875 C 7.28125 -0.769531 6.890625 -0.425781 6.390625 -0.1875 C 5.890625 0.0507812 5.316406 0.171875 4.671875 0.171875 C 3.566406 0.171875 2.738281 -0.0859375 2.1875 -0.609375 C 1.632812 -1.140625 1.359375 -1.984375 1.359375 -3.140625 L 1.359375 -9.09375 Z M 2.75 -9.09375 "/></g></g></g><g fill="#fffbf0" fill-opacity="1"><g transform="translate(170.610878, 242.460759)"><g><path d="M 5.609375 -9.265625 C 6.015625 -9.265625 6.378906 -9.234375 6.703125 -9.171875 L 6.515625 -7.890625 C 6.128906 -7.972656 5.796875 -8.015625 5.515625 -8.015625 C 4.773438 -8.015625 4.144531 -7.710938 3.625 -7.109375 C 3.101562 -6.515625 2.84375 -5.769531 2.84375 -4.875 L 2.84375 0 L 1.46875 0 L 1.46875 -9.09375 L 2.59375 -9.09375 L 2.75 -7.40625 L 2.828125 -7.40625 C 3.160156 -8 3.5625 -8.457031 4.03125 -8.78125 C 4.507812 -9.101562 5.035156 -9.265625 5.609375 -9.265625 Z M 5.609375 -9.265625 "/></g></g></g><g fill="#fffbf0" fill-opacity="1"><g transform="translate(180.062632, 242.460759)"><g/></g></g><g fill="#fffbf0" fill-opacity="1"><g transform="translate(186.99211, 242.460759)"><g><path d="M 7.65625 -1.21875 L 7.578125 -1.21875 C 6.941406 -0.289062 5.988281 0.171875 4.71875 0.171875 C 3.53125 0.171875 2.601562 -0.234375 1.9375 -1.046875 C 1.28125 -1.867188 0.953125 -3.03125 0.953125 -4.53125 C 0.953125 -6.03125 1.285156 -7.191406 1.953125 -8.015625 C 2.617188 -8.847656 3.539062 -9.265625 4.71875 -9.265625 C 5.957031 -9.265625 6.90625 -8.816406 7.5625 -7.921875 L 7.671875 -7.921875 L 7.609375 -8.578125 L 7.578125 -9.21875 L 7.578125 -12.921875 L 8.953125 -12.921875 L 8.953125 0 L 7.84375 0 Z M 4.890625 -0.984375 C 5.835938 -0.984375 6.519531 -1.238281 6.9375 -1.75 C 7.363281 -2.269531 7.578125 -3.097656 7.578125 -4.234375 L 7.578125 -4.53125 C 7.578125 -5.8125 7.363281 -6.726562 6.9375 -7.28125 C 6.507812 -7.832031 5.820312 -8.109375 4.875 -8.109375 C 4.070312 -8.109375 3.453125 -7.789062 3.015625 -7.15625 C 2.585938 -6.53125 2.375 -5.644531 2.375 -4.5 C 2.375 -3.34375 2.585938 -2.46875 3.015625 -1.875 C 3.441406 -1.28125 4.066406 -0.984375 4.890625 -0.984375 Z M 4.890625 -0.984375 "/></g></g></g><g fill="#fffbf0" fill-opacity="1"><g transform="translate(199.920293, 242.460759)"><g><path d="M 5.296875 0.171875 C 3.953125 0.171875 2.890625 -0.238281 2.109375 -1.0625 C 1.335938 -1.882812 0.953125 -3.019531 0.953125 -4.46875 C 0.953125 -5.9375 1.3125 -7.101562 2.03125 -7.96875 C 2.757812 -8.832031 3.734375 -9.265625 4.953125 -9.265625 C 6.085938 -9.265625 6.988281 -8.890625 7.65625 -8.140625 C 8.320312 -7.390625 8.65625 -6.398438 8.65625 -5.171875 L 8.65625 -4.296875 L 2.375 -4.296875 C 2.40625 -3.234375 2.675781 -2.421875 3.1875 -1.859375 C 3.695312 -1.304688 4.421875 -1.03125 5.359375 -1.03125 C 6.335938 -1.03125 7.304688 -1.238281 8.265625 -1.65625 L 8.265625 -0.421875 C 7.773438 -0.210938 7.3125 -0.0625 6.875 0.03125 C 6.4375 0.125 5.910156 0.171875 5.296875 0.171875 Z M 4.9375 -8.109375 C 4.195312 -8.109375 3.609375 -7.867188 3.171875 -7.390625 C 2.742188 -6.921875 2.492188 -6.265625 2.421875 -5.421875 L 7.171875 -5.421875 C 7.171875 -6.285156 6.976562 -6.945312 6.59375 -7.40625 C 6.207031 -7.875 5.65625 -8.109375 4.9375 -8.109375 Z M 3.90625 -10.515625 C 4.164062 -10.859375 4.445312 -11.269531 4.75 -11.75 C 5.0625 -12.238281 5.304688 -12.664062 5.484375 -13.03125 L 7.171875 -13.03125 L 7.171875 -12.84375 C 6.921875 -12.488281 6.554688 -12.046875 6.078125 -11.515625 C 5.597656 -10.992188 5.179688 -10.585938 4.828125 -10.296875 L 3.90625 -10.296875 Z M 3.90625 -10.515625 "/></g></g></g><g fill="#fffbf0" fill-opacity="1"><g transform="translate(211.968998, 242.460759)"><g><path d="M 3.453125 0 L 0 -9.09375 L 1.484375 -9.09375 L 3.4375 -3.703125 C 3.875 -2.441406 4.132812 -1.625 4.21875 -1.25 L 4.28125 -1.25 C 4.34375 -1.539062 4.535156 -2.144531 4.859375 -3.0625 C 5.179688 -3.988281 5.910156 -6 7.046875 -9.09375 L 8.515625 -9.09375 L 5.0625 0 Z M 3.453125 0 "/></g></g></g><g fill="#fffbf0" fill-opacity="1"><g transform="translate(222.997177, 242.460759)"><g><path d="M 5.296875 0.171875 C 3.953125 0.171875 2.890625 -0.238281 2.109375 -1.0625 C 1.335938 -1.882812 0.953125 -3.019531 0.953125 -4.46875 C 0.953125 -5.9375 1.3125 -7.101562 2.03125 -7.96875 C 2.757812 -8.832031 3.734375 -9.265625 4.953125 -9.265625 C 6.085938 -9.265625 6.988281 -8.890625 7.65625 -8.140625 C 8.320312 -7.390625 8.65625 -6.398438 8.65625 -5.171875 L 8.65625 -4.296875 L 2.375 -4.296875 C 2.40625 -3.234375 2.675781 -2.421875 3.1875 -1.859375 C 3.695312 -1.304688 4.421875 -1.03125 5.359375 -1.03125 C 6.335938 -1.03125 7.304688 -1.238281 8.265625 -1.65625 L 8.265625 -0.421875 C 7.773438 -0.210938 7.3125 -0.0625 6.875 0.03125 C 6.4375 0.125 5.910156 0.171875 5.296875 0.171875 Z M 4.9375 -8.109375 C 4.195312 -8.109375 3.609375 -7.867188 3.171875 -7.390625 C 2.742188 -6.921875 2.492188 -6.265625 2.421875 -5.421875 L 7.171875 -5.421875 C 7.171875 -6.285156 6.976562 -6.945312 6.59375 -7.40625 C 6.207031 -7.875 5.65625 -8.109375 4.9375 -8.109375 Z M 4.9375 -8.109375 "/></g></g></g><g fill="#fffbf0" fill-opacity="1"><g transform="translate(235.045882, 242.460759)"><g><path d="M 2.84375 0 L 1.46875 0 L 1.46875 -12.921875 L 2.84375 -12.921875 Z M 2.84375 0 "/></g></g></g><g fill="#fffbf0" fill-opacity="1"><g transform="translate(241.859202, 242.460759)"><g><path d="M 9.3125 -4.5625 C 9.3125 -3.070312 8.9375 -1.910156 8.1875 -1.078125 C 7.445312 -0.242188 6.414062 0.171875 5.09375 0.171875 C 4.28125 0.171875 3.554688 -0.0195312 2.921875 -0.40625 C 2.296875 -0.789062 1.8125 -1.335938 1.46875 -2.046875 C 1.125 -2.765625 0.953125 -3.601562 0.953125 -4.5625 C 0.953125 -6.039062 1.320312 -7.191406 2.0625 -8.015625 C 2.800781 -8.847656 3.832031 -9.265625 5.15625 -9.265625 C 6.425781 -9.265625 7.4375 -8.835938 8.1875 -7.984375 C 8.9375 -7.140625 9.3125 -6 9.3125 -4.5625 Z M 2.375 -4.5625 C 2.375 -3.394531 2.609375 -2.503906 3.078125 -1.890625 C 3.546875 -1.285156 4.226562 -0.984375 5.125 -0.984375 C 6.03125 -0.984375 6.71875 -1.285156 7.1875 -1.890625 C 7.65625 -2.503906 7.890625 -3.394531 7.890625 -4.5625 C 7.890625 -5.71875 7.65625 -6.59375 7.1875 -7.1875 C 6.71875 -7.789062 6.023438 -8.09375 5.109375 -8.09375 C 4.210938 -8.09375 3.53125 -7.796875 3.0625 -7.203125 C 2.601562 -6.609375 2.375 -5.726562 2.375 -4.5625 Z M 2.375 -4.5625 "/></g></g></g><g fill="#fffbf0" fill-opacity="1"><g transform="translate(254.63804, 242.460759)"><g><path d="M 5.6875 0.171875 C 5.101562 0.171875 4.566406 0.0625 4.078125 -0.15625 C 3.585938 -0.375 3.175781 -0.710938 2.84375 -1.171875 L 2.734375 -1.171875 C 2.804688 -0.640625 2.84375 -0.132812 2.84375 0.34375 L 2.84375 4.078125 L 1.46875 4.078125 L 1.46875 -9.09375 L 2.578125 -9.09375 L 2.765625 -7.859375 L 2.84375 -7.859375 C 3.195312 -8.347656 3.609375 -8.703125 4.078125 -8.921875 C 4.546875 -9.148438 5.082031 -9.265625 5.6875 -9.265625 C 6.894531 -9.265625 7.828125 -8.851562 8.484375 -8.03125 C 9.140625 -7.207031 9.46875 -6.050781 9.46875 -4.5625 C 9.46875 -3.0625 9.132812 -1.894531 8.46875 -1.0625 C 7.800781 -0.238281 6.875 0.171875 5.6875 0.171875 Z M 5.5 -8.09375 C 4.5625 -8.09375 3.882812 -7.832031 3.46875 -7.3125 C 3.0625 -6.800781 2.851562 -5.984375 2.84375 -4.859375 L 2.84375 -4.5625 C 2.84375 -3.28125 3.054688 -2.363281 3.484375 -1.8125 C 3.910156 -1.257812 4.59375 -0.984375 5.53125 -0.984375 C 6.3125 -0.984375 6.925781 -1.300781 7.375 -1.9375 C 7.820312 -2.570312 8.046875 -3.453125 8.046875 -4.578125 C 8.046875 -5.710938 7.820312 -6.582031 7.375 -7.1875 C 6.925781 -7.789062 6.300781 -8.09375 5.5 -8.09375 Z M 5.5 -8.09375 "/></g></g></g><g fill="#fffbf0" fill-opacity="1"><g transform="translate(267.566223, 242.460759)"><g><path d="M 5.6875 0.171875 C 5.101562 0.171875 4.566406 0.0625 4.078125 -0.15625 C 3.585938 -0.375 3.175781 -0.710938 2.84375 -1.171875 L 2.734375 -1.171875 C 2.804688 -0.640625 2.84375 -0.132812 2.84375 0.34375 L 2.84375 4.078125 L 1.46875 4.078125 L 1.46875 -9.09375 L 2.578125 -9.09375 L 2.765625 -7.859375 L 2.84375 -7.859375 C 3.195312 -8.347656 3.609375 -8.703125 4.078125 -8.921875 C 4.546875 -9.148438 5.082031 -9.265625 5.6875 -9.265625 C 6.894531 -9.265625 7.828125 -8.851562 8.484375 -8.03125 C 9.140625 -7.207031 9.46875 -6.050781 9.46875 -4.5625 C 9.46875 -3.0625 9.132812 -1.894531 8.46875 -1.0625 C 7.800781 -0.238281 6.875 0.171875 5.6875 0.171875 Z M 5.5 -8.09375 C 4.5625 -8.09375 3.882812 -7.832031 3.46875 -7.3125 C 3.0625 -6.800781 2.851562 -5.984375 2.84375 -4.859375 L 2.84375 -4.5625 C 2.84375 -3.28125 3.054688 -2.363281 3.484375 -1.8125 C 3.910156 -1.257812 4.59375 -0.984375 5.53125 -0.984375 C 6.3125 -0.984375 6.925781 -1.300781 7.375 -1.9375 C 7.820312 -2.570312 8.046875 -3.453125 8.046875 -4.578125 C 8.046875 -5.710938 7.820312 -6.582031 7.375 -7.1875 C 6.925781 -7.789062 6.300781 -8.09375 5.5 -8.09375 Z M 5.5 -8.09375 "/></g></g></g><g fill="#fffbf0" fill-opacity="1"><g transform="translate(280.494407, 242.460759)"><g><path d="M 5.296875 0.171875 C 3.953125 0.171875 2.890625 -0.238281 2.109375 -1.0625 C 1.335938 -1.882812 0.953125 -3.019531 0.953125 -4.46875 C 0.953125 -5.9375 1.3125 -7.101562 2.03125 -7.96875 C 2.757812 -8.832031 3.734375 -9.265625 4.953125 -9.265625 C 6.085938 -9.265625 6.988281 -8.890625 7.65625 -8.140625 C 8.320312 -7.390625 8.65625 -6.398438 8.65625 -5.171875 L 8.65625 -4.296875 L 2.375 -4.296875 C 2.40625 -3.234375 2.675781 -2.421875 3.1875 -1.859375 C 3.695312 -1.304688 4.421875 -1.03125 5.359375 -1.03125 C 6.335938 -1.03125 7.304688 -1.238281 8.265625 -1.65625 L 8.265625 -0.421875 C 7.773438 -0.210938 7.3125 -0.0625 6.875 0.03125 C 6.4375 0.125 5.910156 0.171875 5.296875 0.171875 Z M 4.9375 -8.109375 C 4.195312 -8.109375 3.609375 -7.867188 3.171875 -7.390625 C 2.742188 -6.921875 2.492188 -6.265625 2.421875 -5.421875 L 7.171875 -5.421875 C 7.171875 -6.285156 6.976562 -6.945312 6.59375 -7.40625 C 6.207031 -7.875 5.65625 -8.109375 4.9375 -8.109375 Z M 4.9375 -8.109375 "/></g></g></g><g fill="#fffbf0" fill-opacity="1"><g transform="translate(292.543112, 242.460759)"><g><path d="M 2.75 -9.09375 L 2.75 -3.203125 C 2.75 -2.453125 2.914062 -1.894531 3.25 -1.53125 C 3.59375 -1.164062 4.125 -0.984375 4.84375 -0.984375 C 5.800781 -0.984375 6.5 -1.242188 6.9375 -1.765625 C 7.375 -2.285156 7.59375 -3.132812 7.59375 -4.3125 L 7.59375 -9.09375 L 8.96875 -9.09375 L 8.96875 0 L 7.84375 0 L 7.640625 -1.21875 L 7.5625 -1.21875 C 7.28125 -0.769531 6.890625 -0.425781 6.390625 -0.1875 C 5.890625 0.0507812 5.316406 0.171875 4.671875 0.171875 C 3.566406 0.171875 2.738281 -0.0859375 2.1875 -0.609375 C 1.632812 -1.140625 1.359375 -1.984375 1.359375 -3.140625 L 1.359375 -9.09375 Z M 2.75 -9.09375 "/></g></g></g><g fill="#fffbf0" fill-opacity="1"><g transform="translate(305.48789, 242.460759)"><g><path d="M 5.609375 -9.265625 C 6.015625 -9.265625 6.378906 -9.234375 6.703125 -9.171875 L 6.515625 -7.890625 C 6.128906 -7.972656 5.796875 -8.015625 5.515625 -8.015625 C 4.773438 -8.015625 4.144531 -7.710938 3.625 -7.109375 C 3.101562 -6.515625 2.84375 -5.769531 2.84375 -4.875 L 2.84375 0 L 1.46875 0 L 1.46875 -9.09375 L 2.59375 -9.09375 L 2.75 -7.40625 L 2.828125 -7.40625 C 3.160156 -8 3.5625 -8.457031 4.03125 -8.78125 C 4.507812 -9.101562 5.035156 -9.265625 5.609375 -9.265625 Z M 5.609375 -9.265625 "/></g></g></g><g fill="#fffbf0" fill-opacity="1"><g transform="translate(116.304661, 265.710758)"><g><path d="M 7.65625 -1.21875 L 7.578125 -1.21875 C 6.941406 -0.289062 5.988281 0.171875 4.71875 0.171875 C 3.53125 0.171875 2.601562 -0.234375 1.9375 -1.046875 C 1.28125 -1.867188 0.953125 -3.03125 0.953125 -4.53125 C 0.953125 -6.03125 1.285156 -7.191406 1.953125 -8.015625 C 2.617188 -8.847656 3.539062 -9.265625 4.71875 -9.265625 C 5.957031 -9.265625 6.90625 -8.816406 7.5625 -7.921875 L 7.671875 -7.921875 L 7.609375 -8.578125 L 7.578125 -9.21875 L 7.578125 -12.921875 L 8.953125 -12.921875 L 8.953125 0 L 7.84375 0 Z M 4.890625 -0.984375 C 5.835938 -0.984375 6.519531 -1.238281 6.9375 -1.75 C 7.363281 -2.269531 7.578125 -3.097656 7.578125 -4.234375 L 7.578125 -4.53125 C 7.578125 -5.8125 7.363281 -6.726562 6.9375 -7.28125 C 6.507812 -7.832031 5.820312 -8.109375 4.875 -8.109375 C 4.070312 -8.109375 3.453125 -7.789062 3.015625 -7.15625 C 2.585938 -6.53125 2.375 -5.644531 2.375 -4.5 C 2.375 -3.34375 2.585938 -2.46875 3.015625 -1.875 C 3.441406 -1.28125 4.066406 -0.984375 4.890625 -0.984375 Z M 4.890625 -0.984375 "/></g></g></g><g fill="#fffbf0" fill-opacity="1"><g transform="translate(129.232846, 265.710758)"><g><path d="M 2.640625 -12.140625 L 2.3125 -7.75 L 1.4375 -7.75 L 1.109375 -12.140625 Z M 2.640625 -12.140625 "/></g></g></g><g fill="#fffbf0" fill-opacity="1"><g transform="translate(135.506864, 265.710758)"><g><path d="M 7.0625 0 L 6.78125 -1.296875 L 6.71875 -1.296875 C 6.257812 -0.722656 5.804688 -0.332031 5.359375 -0.125 C 4.910156 0.0703125 4.347656 0.171875 3.671875 0.171875 C 2.765625 0.171875 2.054688 -0.0625 1.546875 -0.53125 C 1.035156 -1 0.78125 -1.660156 0.78125 -2.515625 C 0.78125 -4.347656 2.25 -5.3125 5.1875 -5.40625 L 6.734375 -5.453125 L 6.734375 -6.015625 C 6.734375 -6.734375 6.578125 -7.257812 6.265625 -7.59375 C 5.960938 -7.9375 5.472656 -8.109375 4.796875 -8.109375 C 4.035156 -8.109375 3.175781 -7.875 2.21875 -7.40625 L 1.796875 -8.46875 C 2.242188 -8.707031 2.734375 -8.894531 3.265625 -9.03125 C 3.804688 -9.175781 4.34375 -9.25 4.875 -9.25 C 5.96875 -9.25 6.773438 -9.003906 7.296875 -8.515625 C 7.816406 -8.035156 8.078125 -7.265625 8.078125 -6.203125 L 8.078125 0 Z M 3.9375 -0.96875 C 4.800781 -0.96875 5.476562 -1.203125 5.96875 -1.671875 C 6.457031 -2.140625 6.703125 -2.800781 6.703125 -3.65625 L 6.703125 -4.46875 L 5.328125 -4.421875 C 4.222656 -4.378906 3.425781 -4.207031 2.9375 -3.90625 C 2.457031 -3.601562 2.21875 -3.132812 2.21875 -2.5 C 2.21875 -2 2.367188 -1.617188 2.671875 -1.359375 C 2.972656 -1.097656 3.394531 -0.96875 3.9375 -0.96875 Z M 3.9375 -0.96875 "/></g></g></g><g fill="#fffbf0" fill-opacity="1"><g transform="translate(147.472603, 265.710758)"><g><path d="M 5.6875 0.171875 C 5.101562 0.171875 4.566406 0.0625 4.078125 -0.15625 C 3.585938 -0.375 3.175781 -0.710938 2.84375 -1.171875 L 2.734375 -1.171875 C 2.804688 -0.640625 2.84375 -0.132812 2.84375 0.34375 L 2.84375 4.078125 L 1.46875 4.078125 L 1.46875 -9.09375 L 2.578125 -9.09375 L 2.765625 -7.859375 L 2.84375 -7.859375 C 3.195312 -8.347656 3.609375 -8.703125 4.078125 -8.921875 C 4.546875 -9.148438 5.082031 -9.265625 5.6875 -9.265625 C 6.894531 -9.265625 7.828125 -8.851562 8.484375 -8.03125 C 9.140625 -7.207031 9.46875 -6.050781 9.46875 -4.5625 C 9.46875 -3.0625 9.132812 -1.894531 8.46875 -1.0625 C 7.800781 -0.238281 6.875 0.171875 5.6875 0.171875 Z M 5.5 -8.09375 C 4.5625 -8.09375 3.882812 -7.832031 3.46875 -7.3125 C 3.0625 -6.800781 2.851562 -5.984375 2.84375 -4.859375 L 2.84375 -4.5625 C 2.84375 -3.28125 3.054688 -2.363281 3.484375 -1.8125 C 3.910156 -1.257812 4.59375 -0.984375 5.53125 -0.984375 C 6.3125 -0.984375 6.925781 -1.300781 7.375 -1.9375 C 7.820312 -2.570312 8.046875 -3.453125 8.046875 -4.578125 C 8.046875 -5.710938 7.820312 -6.582031 7.375 -7.1875 C 6.925781 -7.789062 6.300781 -8.09375 5.5 -8.09375 Z M 5.5 -8.09375 "/></g></g></g><g fill="#fffbf0" fill-opacity="1"><g transform="translate(160.400786, 265.710758)"><g><path d="M 5.6875 0.171875 C 5.101562 0.171875 4.566406 0.0625 4.078125 -0.15625 C 3.585938 -0.375 3.175781 -0.710938 2.84375 -1.171875 L 2.734375 -1.171875 C 2.804688 -0.640625 2.84375 -0.132812 2.84375 0.34375 L 2.84375 4.078125 L 1.46875 4.078125 L 1.46875 -9.09375 L 2.578125 -9.09375 L 2.765625 -7.859375 L 2.84375 -7.859375 C 3.195312 -8.347656 3.609375 -8.703125 4.078125 -8.921875 C 4.546875 -9.148438 5.082031 -9.265625 5.6875 -9.265625 C 6.894531 -9.265625 7.828125 -8.851562 8.484375 -8.03125 C 9.140625 -7.207031 9.46875 -6.050781 9.46875 -4.5625 C 9.46875 -3.0625 9.132812 -1.894531 8.46875 -1.0625 C 7.800781 -0.238281 6.875 0.171875 5.6875 0.171875 Z M 5.5 -8.09375 C 4.5625 -8.09375 3.882812 -7.832031 3.46875 -7.3125 C 3.0625 -6.800781 2.851562 -5.984375 2.84375 -4.859375 L 2.84375 -4.5625 C 2.84375 -3.28125 3.054688 -2.363281 3.484375 -1.8125 C 3.910156 -1.257812 4.59375 -0.984375 5.53125 -0.984375 C 6.3125 -0.984375 6.925781 -1.300781 7.375 -1.9375 C 7.820312 -2.570312 8.046875 -3.453125 8.046875 -4.578125 C 8.046875 -5.710938 7.820312 -6.582031 7.375 -7.1875 C 6.925781 -7.789062 6.300781 -8.09375 5.5 -8.09375 Z M 5.5 -8.09375 "/></g></g></g><g fill="#fffbf0" fill-opacity="1"><g transform="translate(173.32897, 265.710758)"><g><path d="M 2.84375 0 L 1.46875 0 L 1.46875 -12.921875 L 2.84375 -12.921875 Z M 2.84375 0 "/></g></g></g><g fill="#fffbf0" fill-opacity="1"><g transform="translate(180.142289, 265.710758)"><g><path d="M 2.84375 0 L 1.46875 0 L 1.46875 -9.09375 L 2.84375 -9.09375 Z M 1.34375 -11.5625 C 1.34375 -11.875 1.421875 -12.101562 1.578125 -12.25 C 1.734375 -12.394531 1.925781 -12.46875 2.15625 -12.46875 C 2.375 -12.46875 2.5625 -12.394531 2.71875 -12.25 C 2.882812 -12.101562 2.96875 -11.875 2.96875 -11.5625 C 2.96875 -11.25 2.882812 -11.015625 2.71875 -10.859375 C 2.5625 -10.710938 2.375 -10.640625 2.15625 -10.640625 C 1.925781 -10.640625 1.734375 -10.710938 1.578125 -10.859375 C 1.421875 -11.015625 1.34375 -11.25 1.34375 -11.5625 Z M 1.34375 -11.5625 "/></g></g></g><g fill="#fffbf0" fill-opacity="1"><g transform="translate(186.955609, 265.710758)"><g><path d="M 5.09375 0.171875 C 3.78125 0.171875 2.757812 -0.234375 2.03125 -1.046875 C 1.3125 -1.859375 0.953125 -3.003906 0.953125 -4.484375 C 0.953125 -6.015625 1.316406 -7.191406 2.046875 -8.015625 C 2.785156 -8.847656 3.832031 -9.265625 5.1875 -9.265625 C 5.625 -9.265625 6.0625 -9.21875 6.5 -9.125 C 6.9375 -9.03125 7.28125 -8.921875 7.53125 -8.796875 L 7.109375 -7.625 C 6.804688 -7.738281 6.472656 -7.835938 6.109375 -7.921875 C 5.742188 -8.003906 5.425781 -8.046875 5.15625 -8.046875 C 3.300781 -8.046875 2.375 -6.863281 2.375 -4.5 C 2.375 -3.382812 2.597656 -2.523438 3.046875 -1.921875 C 3.503906 -1.328125 4.175781 -1.03125 5.0625 -1.03125 C 5.820312 -1.03125 6.597656 -1.195312 7.390625 -1.53125 L 7.390625 -0.3125 C 6.785156 0.0078125 6.019531 0.171875 5.09375 0.171875 Z M 5.09375 0.171875 "/></g></g></g><g fill="#fffbf0" fill-opacity="1"><g transform="translate(197.560642, 265.710758)"><g><path d="M 7.0625 0 L 6.78125 -1.296875 L 6.71875 -1.296875 C 6.257812 -0.722656 5.804688 -0.332031 5.359375 -0.125 C 4.910156 0.0703125 4.347656 0.171875 3.671875 0.171875 C 2.765625 0.171875 2.054688 -0.0625 1.546875 -0.53125 C 1.035156 -1 0.78125 -1.660156 0.78125 -2.515625 C 0.78125 -4.347656 2.25 -5.3125 5.1875 -5.40625 L 6.734375 -5.453125 L 6.734375 -6.015625 C 6.734375 -6.734375 6.578125 -7.257812 6.265625 -7.59375 C 5.960938 -7.9375 5.472656 -8.109375 4.796875 -8.109375 C 4.035156 -8.109375 3.175781 -7.875 2.21875 -7.40625 L 1.796875 -8.46875 C 2.242188 -8.707031 2.734375 -8.894531 3.265625 -9.03125 C 3.804688 -9.175781 4.34375 -9.25 4.875 -9.25 C 5.96875 -9.25 6.773438 -9.003906 7.296875 -8.515625 C 7.816406 -8.035156 8.078125 -7.265625 8.078125 -6.203125 L 8.078125 0 Z M 3.9375 -0.96875 C 4.800781 -0.96875 5.476562 -1.203125 5.96875 -1.671875 C 6.457031 -2.140625 6.703125 -2.800781 6.703125 -3.65625 L 6.703125 -4.46875 L 5.328125 -4.421875 C 4.222656 -4.378906 3.425781 -4.207031 2.9375 -3.90625 C 2.457031 -3.601562 2.21875 -3.132812 2.21875 -2.5 C 2.21875 -2 2.367188 -1.617188 2.671875 -1.359375 C 2.972656 -1.097656 3.394531 -0.96875 3.9375 -0.96875 Z M 3.9375 -0.96875 "/></g></g></g><g fill="#fffbf0" fill-opacity="1"><g transform="translate(209.526378, 265.710758)"><g><path d="M 4.40625 -0.96875 C 4.644531 -0.96875 4.878906 -0.984375 5.109375 -1.015625 C 5.335938 -1.054688 5.515625 -1.097656 5.640625 -1.140625 L 5.640625 -0.078125 C 5.492188 -0.00390625 5.273438 0.0507812 4.984375 0.09375 C 4.691406 0.144531 4.429688 0.171875 4.203125 0.171875 C 2.441406 0.171875 1.5625 -0.753906 1.5625 -2.609375 L 1.5625 -8.03125 L 0.25 -8.03125 L 0.25 -8.6875 L 1.5625 -9.265625 L 2.140625 -11.203125 L 2.9375 -11.203125 L 2.9375 -9.09375 L 5.578125 -9.09375 L 5.578125 -8.03125 L 2.9375 -8.03125 L 2.9375 -2.671875 C 2.9375 -2.117188 3.066406 -1.695312 3.328125 -1.40625 C 3.585938 -1.113281 3.945312 -0.96875 4.40625 -0.96875 Z M 4.40625 -0.96875 "/></g></g></g><g fill="#fffbf0" fill-opacity="1"><g transform="translate(218.040581, 265.710758)"><g><path d="M 2.84375 0 L 1.46875 0 L 1.46875 -9.09375 L 2.84375 -9.09375 Z M 1.34375 -11.5625 C 1.34375 -11.875 1.421875 -12.101562 1.578125 -12.25 C 1.734375 -12.394531 1.925781 -12.46875 2.15625 -12.46875 C 2.375 -12.46875 2.5625 -12.394531 2.71875 -12.25 C 2.882812 -12.101562 2.96875 -11.875 2.96875 -11.5625 C 2.96875 -11.25 2.882812 -11.015625 2.71875 -10.859375 C 2.5625 -10.710938 2.375 -10.640625 2.15625 -10.640625 C 1.925781 -10.640625 1.734375 -10.710938 1.578125 -10.859375 C 1.421875 -11.015625 1.34375 -11.25 1.34375 -11.5625 Z M 1.34375 -11.5625 "/></g></g></g><g fill="#fffbf0" fill-opacity="1"><g transform="translate(224.853901, 265.710758)"><g><path d="M 9.3125 -4.5625 C 9.3125 -3.070312 8.9375 -1.910156 8.1875 -1.078125 C 7.445312 -0.242188 6.414062 0.171875 5.09375 0.171875 C 4.28125 0.171875 3.554688 -0.0195312 2.921875 -0.40625 C 2.296875 -0.789062 1.8125 -1.335938 1.46875 -2.046875 C 1.125 -2.765625 0.953125 -3.601562 0.953125 -4.5625 C 0.953125 -6.039062 1.320312 -7.191406 2.0625 -8.015625 C 2.800781 -8.847656 3.832031 -9.265625 5.15625 -9.265625 C 6.425781 -9.265625 7.4375 -8.835938 8.1875 -7.984375 C 8.9375 -7.140625 9.3125 -6 9.3125 -4.5625 Z M 2.375 -4.5625 C 2.375 -3.394531 2.609375 -2.503906 3.078125 -1.890625 C 3.546875 -1.285156 4.226562 -0.984375 5.125 -0.984375 C 6.03125 -0.984375 6.71875 -1.285156 7.1875 -1.890625 C 7.65625 -2.503906 7.890625 -3.394531 7.890625 -4.5625 C 7.890625 -5.71875 7.65625 -6.59375 7.1875 -7.1875 C 6.71875 -7.789062 6.023438 -8.09375 5.109375 -8.09375 C 4.210938 -8.09375 3.53125 -7.796875 3.0625 -7.203125 C 2.601562 -6.609375 2.375 -5.726562 2.375 -4.5625 Z M 2.375 -4.5625 "/></g></g></g><g fill="#fffbf0" fill-opacity="1"><g transform="translate(237.632739, 265.710758)"><g><path d="M 7.6875 0 L 7.6875 -5.890625 C 7.6875 -6.628906 7.515625 -7.179688 7.171875 -7.546875 C 6.835938 -7.910156 6.3125 -8.09375 5.59375 -8.09375 C 4.644531 -8.09375 3.945312 -7.832031 3.5 -7.3125 C 3.0625 -6.800781 2.84375 -5.953125 2.84375 -4.765625 L 2.84375 0 L 1.46875 0 L 1.46875 -9.09375 L 2.578125 -9.09375 L 2.8125 -7.859375 L 2.875 -7.859375 C 3.15625 -8.304688 3.550781 -8.648438 4.0625 -8.890625 C 4.570312 -9.140625 5.140625 -9.265625 5.765625 -9.265625 C 6.859375 -9.265625 7.679688 -9 8.234375 -8.46875 C 8.785156 -7.9375 9.0625 -7.09375 9.0625 -5.9375 L 9.0625 0 Z M 7.6875 0 "/></g></g></g><g fill="#fffbf0" fill-opacity="1"><g transform="translate(250.577517, 265.710758)"><g><path d="M 7.328125 -2.484375 C 7.328125 -1.640625 7.007812 -0.984375 6.375 -0.515625 C 5.75 -0.0546875 4.867188 0.171875 3.734375 0.171875 C 2.523438 0.171875 1.582031 -0.0195312 0.90625 -0.40625 L 0.90625 -1.6875 C 1.34375 -1.46875 1.8125 -1.289062 2.3125 -1.15625 C 2.8125 -1.03125 3.296875 -0.96875 3.765625 -0.96875 C 4.484375 -0.96875 5.035156 -1.082031 5.421875 -1.3125 C 5.804688 -1.539062 6 -1.890625 6 -2.359375 C 6 -2.710938 5.84375 -3.015625 5.53125 -3.265625 C 5.226562 -3.523438 4.632812 -3.828125 3.75 -4.171875 C 2.894531 -4.484375 2.289062 -4.753906 1.9375 -4.984375 C 1.582031 -5.222656 1.316406 -5.492188 1.140625 -5.796875 C 0.960938 -6.097656 0.875 -6.453125 0.875 -6.859375 C 0.875 -7.609375 1.175781 -8.195312 1.78125 -8.625 C 2.382812 -9.050781 3.210938 -9.265625 4.265625 -9.265625 C 5.242188 -9.265625 6.203125 -9.066406 7.140625 -8.671875 L 6.65625 -7.546875 C 5.738281 -7.921875 4.910156 -8.109375 4.171875 -8.109375 C 3.515625 -8.109375 3.019531 -8.003906 2.6875 -7.796875 C 2.351562 -7.597656 2.1875 -7.316406 2.1875 -6.953125 C 2.1875 -6.710938 2.25 -6.503906 2.375 -6.328125 C 2.5 -6.160156 2.695312 -6 2.96875 -5.84375 C 3.25 -5.6875 3.785156 -5.460938 4.578125 -5.171875 C 5.648438 -4.773438 6.375 -4.378906 6.75 -3.984375 C 7.132812 -3.585938 7.328125 -3.085938 7.328125 -2.484375 Z M 7.328125 -2.484375 "/></g></g></g></svg>