<svg xmlns="http://www.w3.org/2000/svg" xmlns:xlink="http://www.w3.org/1999/xlink" width="500" zoomAndPan="magnify" viewBox="0 0 375 374.999991" height="500" preserveAspectRatio="xMidYMid meet" version="1.0"><defs><g/><clipPath id="abc5187cac"><path d="M 136 174 L 154.5 174 L 154.5 186 L 136 186 Z M 136 174 " clip-rule="nonzero"/></clipPath><clipPath id="10f1ec5209"><path d="M 37.5 160.382812 L 147 160.382812 L 147 214.382812 L 37.5 214.382812 Z M 37.5 160.382812 " clip-rule="nonzero"/></clipPath><clipPath id="46738f9498"><path d="M 124 203 L 142 203 L 142 214.382812 L 124 214.382812 Z M 124 203 " clip-rule="nonzero"/></clipPath></defs><g clip-path="url(#abc5187cac)"><path fill="#ffffff" d="M 148.925781 174.839844 L 141.640625 174.839844 C 138.691406 174.839844 136.289062 177.222656 136.289062 180.152344 C 136.289062 183.078125 138.691406 185.460938 141.640625 185.460938 L 148.925781 185.460938 C 151.875 185.460938 154.273438 183.078125 154.273438 180.152344 C 154.273438 177.222656 151.875 174.839844 148.925781 174.839844 Z M 148.925781 182.070312 L 141.640625 182.070312 C 140.574219 182.070312 139.703125 181.210938 139.703125 180.152344 C 139.703125 179.089844 140.574219 178.230469 141.640625 178.230469 L 148.925781 178.230469 C 149.992188 178.230469 150.859375 179.089844 150.859375 180.152344 C 150.859375 181.210938 149.992188 182.070312 148.925781 182.070312 Z M 148.925781 182.070312 " fill-opacity="1" fill-rule="nonzero"/></g><g clip-path="url(#10f1ec5209)"><path fill="#ffffff" d="M 114.550781 203.761719 L 109.417969 203.761719 C 108.34375 203.761719 107.433594 202.941406 107.382812 201.9375 C 107.359375 201.40625 107.546875 200.898438 107.917969 200.515625 C 108.285156 200.132812 108.78125 199.921875 109.316406 199.921875 L 130.03125 199.921875 C 132.980469 199.921875 135.378906 197.539062 135.378906 194.609375 C 135.378906 191.683594 132.980469 189.304688 130.03125 189.304688 L 115.335938 189.304688 C 114.261719 189.304688 113.351562 188.480469 113.300781 187.476562 C 113.277344 186.945312 113.464844 186.4375 113.835938 186.054688 C 114.203125 185.671875 114.699219 185.460938 115.234375 185.460938 L 122.972656 185.460938 C 125.921875 185.460938 128.324219 183.078125 128.324219 180.152344 C 128.324219 177.222656 125.921875 174.839844 122.972656 174.839844 L 106.460938 174.839844 C 105.386719 174.839844 104.472656 174.023438 104.425781 173.015625 C 104.398438 172.484375 104.589844 171.980469 104.957031 171.59375 C 105.324219 171.210938 105.824219 171 106.355469 171 L 141.410156 171 C 142.867188 171 144.277344 170.402344 145.28125 169.355469 C 146.300781 168.296875 146.824219 166.902344 146.753906 165.4375 C 146.621094 162.601562 144.230469 160.382812 141.308594 160.382812 L 74.203125 160.382812 C 73.261719 160.382812 72.496094 161.140625 72.496094 162.074219 C 72.496094 163.011719 73.261719 163.769531 74.203125 163.769531 L 141.308594 163.769531 C 142.382812 163.769531 143.296875 164.589844 143.34375 165.597656 C 143.371094 166.128906 143.179688 166.632812 142.8125 167.015625 C 142.441406 167.398438 141.945312 167.613281 141.410156 167.613281 L 106.355469 167.613281 C 104.902344 167.613281 103.492188 168.210938 102.488281 169.257812 C 101.46875 170.316406 100.945312 171.707031 101.015625 173.175781 C 101.148438 176.011719 103.539062 178.230469 106.460938 178.230469 L 122.972656 178.230469 C 124.039062 178.230469 124.910156 179.09375 124.910156 180.152344 C 124.910156 181.210938 124.039062 182.070312 122.972656 182.070312 L 115.234375 182.070312 C 113.777344 182.070312 112.367188 182.671875 111.363281 183.714844 C 110.34375 184.777344 109.824219 186.167969 109.890625 187.636719 C 110.027344 190.46875 112.417969 192.691406 115.335938 192.691406 L 130.03125 192.691406 C 131.097656 192.691406 131.964844 193.554688 131.964844 194.613281 C 131.964844 195.671875 131.097656 196.53125 130.03125 196.53125 L 109.316406 196.53125 C 107.859375 196.53125 106.449219 197.132812 105.445312 198.175781 C 104.425781 199.238281 103.902344 200.628906 103.972656 202.097656 C 104.105469 204.929688 106.5 207.152344 109.417969 207.152344 L 114.550781 207.152344 C 115.617188 207.152344 116.488281 208.015625 116.488281 209.074219 C 116.488281 210.132812 115.617188 210.992188 114.550781 210.992188 L 43.359375 210.992188 C 42.136719 210.992188 41.140625 210.003906 41.140625 208.792969 L 41.140625 173.9375 L 82 173.9375 C 82.945312 173.9375 83.707031 173.179688 83.707031 172.242188 C 83.707031 171.308594 82.945312 170.546875 82 170.546875 L 41.140625 170.546875 L 41.140625 165.96875 C 41.140625 164.757812 42.136719 163.769531 43.359375 163.769531 L 67.375 163.769531 C 68.316406 163.769531 69.082031 163.011719 69.082031 162.074219 C 69.082031 161.140625 68.316406 160.382812 67.375 160.382812 L 43.359375 160.382812 C 40.253906 160.382812 37.726562 162.886719 37.726562 165.96875 L 37.726562 208.792969 C 37.726562 211.875 40.253906 214.378906 43.359375 214.378906 L 114.550781 214.378906 C 117.5 214.378906 119.902344 212 119.902344 209.070312 C 119.902344 206.144531 117.5 203.761719 114.550781 203.761719 Z M 114.550781 203.761719 " fill-opacity="1" fill-rule="nonzero"/></g><g clip-path="url(#46738f9498)"><path fill="#ffffff" d="M 136.632812 203.761719 L 130.257812 203.761719 C 127.308594 203.761719 124.910156 206.144531 124.910156 209.074219 C 124.910156 212 127.308594 214.378906 130.257812 214.378906 L 136.632812 214.378906 C 139.582031 214.378906 141.980469 212 141.980469 209.074219 C 141.980469 206.144531 139.582031 203.761719 136.632812 203.761719 Z M 136.632812 210.992188 L 130.257812 210.992188 C 129.191406 210.992188 128.324219 210.128906 128.324219 209.074219 C 128.324219 208.015625 129.191406 207.152344 130.257812 207.152344 L 136.632812 207.152344 C 137.699219 207.152344 138.566406 208.015625 138.566406 209.074219 C 138.566406 210.128906 137.699219 210.992188 136.632812 210.992188 Z M 136.632812 210.992188 " fill-opacity="1" fill-rule="nonzero"/></g><path fill="#ffffff" d="M 96.570312 173.9375 C 97.511719 173.9375 98.277344 173.179688 98.277344 172.242188 C 98.277344 171.308594 97.511719 170.546875 96.570312 170.546875 L 89.058594 170.546875 C 88.113281 170.546875 87.351562 171.308594 87.351562 172.242188 C 87.351562 173.179688 88.113281 173.9375 89.058594 173.9375 Z M 96.570312 173.9375 " fill-opacity="1" fill-rule="nonzero"/><path fill="#ffffff" d="M 46.832031 167.496094 C 46.832031 168.308594 46.167969 168.96875 45.351562 168.96875 C 44.535156 168.96875 43.875 168.308594 43.875 167.496094 C 43.875 166.6875 44.535156 166.03125 45.351562 166.03125 C 46.167969 166.03125 46.832031 166.6875 46.832031 167.496094 Z M 46.832031 167.496094 " fill-opacity="1" fill-rule="nonzero"/><path fill="#ffffff" d="M 52.296875 167.496094 C 52.296875 168.308594 51.632812 168.96875 50.816406 168.96875 C 50 168.96875 49.335938 168.308594 49.335938 167.496094 C 49.335938 166.6875 50 166.03125 50.816406 166.03125 C 51.632812 166.03125 52.296875 166.6875 52.296875 167.496094 Z M 52.296875 167.496094 " fill-opacity="1" fill-rule="nonzero"/><path fill="#ffffff" d="M 57.757812 167.496094 C 57.757812 168.308594 57.09375 168.96875 56.277344 168.96875 C 55.460938 168.96875 54.800781 168.308594 54.800781 167.496094 C 54.800781 166.6875 55.460938 166.03125 56.277344 166.03125 C 57.09375 166.03125 57.757812 166.6875 57.757812 167.496094 Z M 57.757812 167.496094 " fill-opacity="1" fill-rule="nonzero"/><path fill="#ffffff" d="M 50.996094 180.195312 C 50.332031 179.535156 49.25 179.535156 48.582031 180.195312 L 43.691406 185.054688 C 43.023438 185.714844 43.023438 186.789062 43.691406 187.449219 L 48.8125 192.535156 C 49.144531 192.863281 49.582031 193.03125 50.019531 193.03125 C 50.457031 193.03125 50.890625 192.863281 51.226562 192.535156 C 51.894531 191.871094 51.894531 190.796875 51.226562 190.136719 L 47.3125 186.25 L 50.996094 182.59375 C 51.664062 181.929688 51.664062 180.855469 50.996094 180.195312 Z M 50.996094 180.195312 " fill-opacity="1" fill-rule="nonzero"/><path fill="#ffffff" d="M 62.699219 192.535156 C 63.03125 192.863281 63.46875 193.03125 63.90625 193.03125 C 64.339844 193.03125 64.777344 192.863281 65.113281 192.535156 L 70.234375 187.449219 C 70.898438 186.789062 70.898438 185.714844 70.234375 185.054688 L 65.339844 180.195312 C 64.671875 179.535156 63.589844 179.535156 62.925781 180.195312 C 62.257812 180.855469 62.257812 181.929688 62.925781 182.59375 L 66.613281 186.25 L 62.699219 190.136719 C 62.03125 190.796875 62.03125 191.871094 62.699219 192.535156 Z M 62.699219 192.535156 " fill-opacity="1" fill-rule="nonzero"/><path fill="#ffffff" d="M 54.457031 192.917969 C 55.054688 192.917969 55.636719 192.605469 55.949219 192.046875 L 61.410156 182.332031 C 61.871094 181.515625 61.574219 180.484375 60.753906 180.027344 C 59.929688 179.570312 58.890625 179.863281 58.429688 180.679688 L 52.96875 190.398438 C 52.507812 191.214844 52.800781 192.246094 53.625 192.703125 C 53.890625 192.847656 54.175781 192.917969 54.457031 192.917969 Z M 54.457031 192.917969 " fill-opacity="1" fill-rule="nonzero"/><path fill="#ffffff" d="M 75.628906 190.882812 L 90.421875 190.882812 C 91.367188 190.882812 92.128906 190.125 92.128906 189.1875 C 92.128906 188.253906 91.367188 187.492188 90.421875 187.492188 L 75.628906 187.492188 C 74.683594 187.492188 73.917969 188.253906 73.917969 189.1875 C 73.917969 190.125 74.683594 190.882812 75.628906 190.882812 Z M 75.628906 190.882812 " fill-opacity="1" fill-rule="nonzero"/><path fill="#ffffff" d="M 75.628906 182.976562 L 77.449219 182.976562 C 78.390625 182.976562 79.15625 182.214844 79.15625 181.28125 C 79.15625 180.34375 78.390625 179.585938 77.449219 179.585938 L 75.628906 179.585938 C 74.683594 179.585938 73.917969 180.34375 73.917969 181.28125 C 73.917969 182.214844 74.683594 182.976562 75.628906 182.976562 Z M 75.628906 182.976562 " fill-opacity="1" fill-rule="nonzero"/><path fill="#ffffff" d="M 104.878906 189.1875 C 104.878906 188.253906 104.113281 187.492188 103.171875 187.492188 L 96.113281 187.492188 C 95.171875 187.492188 94.40625 188.253906 94.40625 189.1875 C 94.40625 190.125 95.171875 190.882812 96.113281 190.882812 L 103.171875 190.882812 C 104.113281 190.882812 104.878906 190.125 104.878906 189.1875 Z M 104.878906 189.1875 " fill-opacity="1" fill-rule="nonzero"/><path fill="#ffffff" d="M 78.929688 197.550781 C 78.929688 196.613281 78.164062 195.855469 77.222656 195.855469 L 49.90625 195.855469 C 48.960938 195.855469 48.199219 196.613281 48.199219 197.550781 C 48.199219 198.484375 48.960938 199.246094 49.90625 199.246094 L 77.222656 199.246094 C 78.164062 199.246094 78.929688 198.484375 78.929688 197.550781 Z M 78.929688 197.550781 " fill-opacity="1" fill-rule="nonzero"/><path fill="#ffffff" d="M 96.113281 195.855469 L 83.140625 195.855469 C 82.195312 195.855469 81.433594 196.613281 81.433594 197.550781 C 81.433594 198.484375 82.195312 199.246094 83.140625 199.246094 L 96.113281 199.246094 C 97.054688 199.246094 97.820312 198.484375 97.820312 197.550781 C 97.820312 196.613281 97.054688 195.855469 96.113281 195.855469 Z M 96.113281 195.855469 " fill-opacity="1" fill-rule="nonzero"/><path fill="#ffffff" d="M 49.90625 203.308594 C 48.960938 203.308594 48.199219 204.070312 48.199219 205.003906 C 48.199219 205.941406 48.960938 206.699219 49.90625 206.699219 L 58.78125 206.699219 C 59.726562 206.699219 60.488281 205.941406 60.488281 205.003906 C 60.488281 204.070312 59.726562 203.308594 58.78125 203.308594 Z M 49.90625 203.308594 " fill-opacity="1" fill-rule="nonzero"/><path fill="#ffffff" d="M 64.019531 203.308594 C 63.074219 203.308594 62.308594 204.070312 62.308594 205.003906 C 62.308594 205.941406 63.074219 206.699219 64.019531 206.699219 L 69.027344 206.699219 C 69.96875 206.699219 70.734375 205.941406 70.734375 205.003906 C 70.734375 204.070312 69.96875 203.308594 69.027344 203.308594 Z M 64.019531 203.308594 " fill-opacity="1" fill-rule="nonzero"/><path fill="#ffffff" d="M 73.578125 206.699219 L 96.113281 206.699219 C 97.054688 206.699219 97.820312 205.941406 97.820312 205.003906 C 97.820312 204.070312 97.054688 203.308594 96.113281 203.308594 L 73.578125 203.308594 C 72.636719 203.308594 71.871094 204.070312 71.871094 205.003906 C 71.871094 205.941406 72.636719 206.699219 73.578125 206.699219 Z M 73.578125 206.699219 " fill-opacity="1" fill-rule="nonzero"/><path fill="#ffffff" d="M 80.976562 181.507812 C 80.976562 182.441406 81.742188 183.203125 82.683594 183.203125 L 96.570312 183.203125 C 97.511719 183.203125 98.277344 182.441406 98.277344 181.507812 C 98.277344 180.570312 97.511719 179.8125 96.570312 179.8125 L 82.683594 179.8125 C 81.742188 179.8125 80.976562 180.570312 80.976562 181.507812 Z M 80.976562 181.507812 " fill-opacity="1" fill-rule="nonzero"/><g fill="#ffffff" fill-opacity="1"><g transform="translate(170.187583, 180.27876)"><g><path d="M 12.78125 -1.28125 C 12.820312 -1.15625 12.84375 -1.023438 12.84375 -0.890625 C 12.84375 -0.609375 12.75 -0.378906 12.5625 -0.203125 C 12.382812 -0.0234375 12.171875 0.0625 11.921875 0.0625 C 11.734375 0.0625 11.554688 0.00390625 11.390625 -0.109375 C 11.234375 -0.222656 11.109375 -0.382812 11.015625 -0.59375 L 9.734375 -3.625 L 3.375 -3.625 L 2.125 -0.578125 C 2.050781 -0.367188 1.9375 -0.207031 1.78125 -0.09375 C 1.625 0.0078125 1.445312 0.0625 1.25 0.0625 C 0.96875 0.0625 0.75 -0.0078125 0.59375 -0.15625 C 0.445312 -0.3125 0.375 -0.519531 0.375 -0.78125 C 0.375 -0.832031 0.382812 -0.941406 0.40625 -1.109375 L 5.65625 -13.84375 C 5.757812 -14.0625 5.894531 -14.226562 6.0625 -14.34375 C 6.238281 -14.457031 6.4375 -14.503906 6.65625 -14.484375 C 6.851562 -14.484375 7.035156 -14.425781 7.203125 -14.3125 C 7.367188 -14.195312 7.488281 -14.039062 7.5625 -13.84375 Z M 4.15625 -5.5 L 8.953125 -5.5 L 6.546875 -11.265625 Z M 4.15625 -5.5 "/></g></g></g><g fill="#ffffff" fill-opacity="1"><g transform="translate(183.411365, 180.27876)"><g><path d="M 6.953125 -11.03125 C 9.429688 -11.03125 10.671875 -9.550781 10.671875 -6.59375 L 10.671875 -0.984375 C 10.671875 -0.710938 10.578125 -0.476562 10.390625 -0.28125 C 10.203125 -0.09375 9.960938 0 9.671875 0 C 9.398438 0 9.171875 -0.09375 8.984375 -0.28125 C 8.804688 -0.476562 8.71875 -0.710938 8.71875 -0.984375 L 8.71875 -6.5625 C 8.71875 -7.375 8.53125 -8.019531 8.15625 -8.5 C 7.78125 -8.976562 7.175781 -9.21875 6.34375 -9.21875 C 5.789062 -9.21875 5.289062 -9.097656 4.84375 -8.859375 C 4.40625 -8.617188 4.054688 -8.296875 3.796875 -7.890625 C 3.546875 -7.492188 3.421875 -7.050781 3.421875 -6.5625 L 3.421875 -0.984375 C 3.421875 -0.710938 3.328125 -0.476562 3.140625 -0.28125 C 2.953125 -0.09375 2.71875 0 2.4375 0 C 2.144531 0 1.910156 -0.09375 1.734375 -0.28125 C 1.554688 -0.46875 1.46875 -0.703125 1.46875 -0.984375 L 1.46875 -9.796875 C 1.46875 -10.078125 1.554688 -10.3125 1.734375 -10.5 C 1.921875 -10.695312 2.15625 -10.796875 2.4375 -10.796875 C 2.71875 -10.796875 2.953125 -10.695312 3.140625 -10.5 C 3.328125 -10.3125 3.421875 -10.078125 3.421875 -9.796875 L 3.421875 -9.078125 C 3.773438 -9.628906 4.269531 -10.09375 4.90625 -10.46875 C 5.550781 -10.84375 6.234375 -11.03125 6.953125 -11.03125 Z M 6.953125 -11.03125 "/></g></g></g><g fill="#ffffff" fill-opacity="1"><g transform="translate(195.543464, 180.27876)"><g><path d="M 4.390625 -8.875 L 4.390625 -2.734375 C 4.390625 -2.046875 4.695312 -1.703125 5.3125 -1.703125 C 5.40625 -1.703125 5.535156 -1.726562 5.703125 -1.78125 C 5.867188 -1.832031 6 -1.859375 6.09375 -1.859375 C 6.269531 -1.859375 6.421875 -1.78125 6.546875 -1.625 C 6.671875 -1.476562 6.734375 -1.285156 6.734375 -1.046875 C 6.734375 -0.765625 6.566406 -0.519531 6.234375 -0.3125 C 5.910156 -0.101562 5.539062 0 5.125 0 C 4.675781 0 4.257812 -0.046875 3.875 -0.140625 C 3.5 -0.234375 3.164062 -0.476562 2.875 -0.875 C 2.582031 -1.269531 2.4375 -1.863281 2.4375 -2.65625 L 2.4375 -8.875 L 1.234375 -8.875 C 0.972656 -8.875 0.753906 -8.957031 0.578125 -9.125 C 0.410156 -9.300781 0.328125 -9.519531 0.328125 -9.78125 C 0.328125 -10.039062 0.410156 -10.253906 0.578125 -10.421875 C 0.753906 -10.585938 0.972656 -10.671875 1.234375 -10.671875 L 2.4375 -10.671875 L 2.4375 -12.390625 C 2.4375 -12.671875 2.523438 -12.90625 2.703125 -13.09375 C 2.890625 -13.289062 3.128906 -13.390625 3.421875 -13.390625 C 3.691406 -13.390625 3.921875 -13.289062 4.109375 -13.09375 C 4.296875 -12.90625 4.390625 -12.671875 4.390625 -12.390625 L 4.390625 -10.671875 L 6.09375 -10.671875 C 6.351562 -10.671875 6.566406 -10.582031 6.734375 -10.40625 C 6.910156 -10.238281 7 -10.023438 7 -9.765625 C 7 -9.503906 6.910156 -9.289062 6.734375 -9.125 C 6.566406 -8.957031 6.351562 -8.875 6.09375 -8.875 Z M 4.390625 -8.875 "/></g></g></g><g fill="#ffffff" fill-opacity="1"><g transform="translate(203.370625, 180.27876)"><g><path d="M 11.671875 -5.390625 C 11.671875 -4.328125 11.429688 -3.367188 10.953125 -2.515625 C 10.472656 -1.660156 9.816406 -0.992188 8.984375 -0.515625 C 8.160156 -0.0351562 7.242188 0.203125 6.234375 0.203125 C 5.234375 0.203125 4.316406 -0.0351562 3.484375 -0.515625 C 2.660156 -0.992188 2.003906 -1.660156 1.515625 -2.515625 C 1.035156 -3.367188 0.796875 -4.328125 0.796875 -5.390625 C 0.796875 -6.460938 1.035156 -7.429688 1.515625 -8.296875 C 2.003906 -9.160156 2.660156 -9.832031 3.484375 -10.3125 C 4.316406 -10.789062 5.234375 -11.03125 6.234375 -11.03125 C 7.242188 -11.03125 8.160156 -10.789062 8.984375 -10.3125 C 9.816406 -9.832031 10.472656 -9.160156 10.953125 -8.296875 C 11.429688 -7.429688 11.671875 -6.460938 11.671875 -5.390625 Z M 9.71875 -5.390625 C 9.71875 -6.128906 9.5625 -6.789062 9.25 -7.375 C 8.945312 -7.96875 8.53125 -8.421875 8 -8.734375 C 7.46875 -9.054688 6.878906 -9.21875 6.234375 -9.21875 C 5.585938 -9.21875 5 -9.054688 4.46875 -8.734375 C 3.945312 -8.421875 3.53125 -7.96875 3.21875 -7.375 C 2.914062 -6.789062 2.765625 -6.128906 2.765625 -5.390625 C 2.765625 -4.660156 2.914062 -4.007812 3.21875 -3.4375 C 3.53125 -2.863281 3.945312 -2.414062 4.46875 -2.09375 C 5 -1.769531 5.585938 -1.609375 6.234375 -1.609375 C 6.878906 -1.609375 7.46875 -1.769531 8 -2.09375 C 8.53125 -2.414062 8.945312 -2.863281 9.25 -3.4375 C 9.5625 -4.007812 9.71875 -4.660156 9.71875 -5.390625 Z M 9.71875 -5.390625 "/></g></g></g><g fill="#ffffff" fill-opacity="1"><g transform="translate(215.852881, 180.27876)"><g><path d="M 3.3125 -0.984375 C 3.3125 -0.710938 3.21875 -0.476562 3.03125 -0.28125 C 2.851562 -0.09375 2.617188 0 2.328125 0 C 2.054688 0 1.828125 -0.09375 1.640625 -0.28125 C 1.453125 -0.476562 1.359375 -0.710938 1.359375 -0.984375 L 1.359375 -9.90625 C 1.359375 -10.175781 1.453125 -10.40625 1.640625 -10.59375 C 1.828125 -10.789062 2.054688 -10.890625 2.328125 -10.890625 C 2.617188 -10.890625 2.851562 -10.789062 3.03125 -10.59375 C 3.21875 -10.40625 3.3125 -10.175781 3.3125 -9.90625 Z M 2.328125 -12.25 C 1.929688 -12.25 1.644531 -12.320312 1.46875 -12.46875 C 1.300781 -12.613281 1.21875 -12.84375 1.21875 -13.15625 L 1.21875 -13.484375 C 1.21875 -13.816406 1.304688 -14.050781 1.484375 -14.1875 C 1.671875 -14.320312 1.957031 -14.390625 2.34375 -14.390625 C 2.726562 -14.390625 3.003906 -14.316406 3.171875 -14.171875 C 3.347656 -14.035156 3.4375 -13.804688 3.4375 -13.484375 L 3.4375 -13.15625 C 3.4375 -12.832031 3.347656 -12.597656 3.171875 -12.453125 C 2.992188 -12.316406 2.710938 -12.25 2.328125 -12.25 Z M 2.328125 -12.25 "/></g></g></g><g fill="#ffffff" fill-opacity="1"><g transform="translate(220.528576, 180.27876)"><g><path d="M 6.953125 -11.03125 C 9.429688 -11.03125 10.671875 -9.550781 10.671875 -6.59375 L 10.671875 -0.984375 C 10.671875 -0.710938 10.578125 -0.476562 10.390625 -0.28125 C 10.203125 -0.09375 9.960938 0 9.671875 0 C 9.398438 0 9.171875 -0.09375 8.984375 -0.28125 C 8.804688 -0.476562 8.71875 -0.710938 8.71875 -0.984375 L 8.71875 -6.5625 C 8.71875 -7.375 8.53125 -8.019531 8.15625 -8.5 C 7.78125 -8.976562 7.175781 -9.21875 6.34375 -9.21875 C 5.789062 -9.21875 5.289062 -9.097656 4.84375 -8.859375 C 4.40625 -8.617188 4.054688 -8.296875 3.796875 -7.890625 C 3.546875 -7.492188 3.421875 -7.050781 3.421875 -6.5625 L 3.421875 -0.984375 C 3.421875 -0.710938 3.328125 -0.476562 3.140625 -0.28125 C 2.953125 -0.09375 2.71875 0 2.4375 0 C 2.144531 0 1.910156 -0.09375 1.734375 -0.28125 C 1.554688 -0.46875 1.46875 -0.703125 1.46875 -0.984375 L 1.46875 -9.796875 C 1.46875 -10.078125 1.554688 -10.3125 1.734375 -10.5 C 1.921875 -10.695312 2.15625 -10.796875 2.4375 -10.796875 C 2.71875 -10.796875 2.953125 -10.695312 3.140625 -10.5 C 3.328125 -10.3125 3.421875 -10.078125 3.421875 -9.796875 L 3.421875 -9.078125 C 3.773438 -9.628906 4.269531 -10.09375 4.90625 -10.46875 C 5.550781 -10.84375 6.234375 -11.03125 6.953125 -11.03125 Z M 6.953125 -11.03125 "/></g></g></g><g fill="#ffffff" fill-opacity="1"><g transform="translate(232.660675, 180.27876)"><g><path d="M 10.9375 -5.8125 C 10.925781 -5.5625 10.820312 -5.347656 10.625 -5.171875 C 10.4375 -5.003906 10.210938 -4.921875 9.953125 -4.921875 L 2.703125 -4.921875 C 2.796875 -3.921875 3.175781 -3.117188 3.84375 -2.515625 C 4.507812 -1.910156 5.320312 -1.609375 6.28125 -1.609375 C 6.9375 -1.609375 7.46875 -1.703125 7.875 -1.890625 C 8.289062 -2.085938 8.660156 -2.335938 8.984375 -2.640625 C 9.179688 -2.765625 9.378906 -2.828125 9.578125 -2.828125 C 9.804688 -2.828125 10 -2.742188 10.15625 -2.578125 C 10.320312 -2.410156 10.40625 -2.21875 10.40625 -2 C 10.40625 -1.707031 10.265625 -1.445312 9.984375 -1.21875 C 9.585938 -0.820312 9.054688 -0.484375 8.390625 -0.203125 C 7.734375 0.0664062 7.066406 0.203125 6.390625 0.203125 C 5.273438 0.203125 4.296875 -0.0234375 3.453125 -0.484375 C 2.609375 -0.953125 1.953125 -1.601562 1.484375 -2.4375 C 1.023438 -3.28125 0.796875 -4.234375 0.796875 -5.296875 C 0.796875 -6.441406 1.03125 -7.453125 1.5 -8.328125 C 1.976562 -9.203125 2.601562 -9.867188 3.375 -10.328125 C 4.15625 -10.796875 4.992188 -11.03125 5.890625 -11.03125 C 6.765625 -11.03125 7.585938 -10.800781 8.359375 -10.34375 C 9.128906 -9.894531 9.75 -9.273438 10.21875 -8.484375 C 10.6875 -7.691406 10.925781 -6.800781 10.9375 -5.8125 Z M 5.890625 -9.21875 C 5.117188 -9.21875 4.453125 -9 3.890625 -8.5625 C 3.328125 -8.132812 2.957031 -7.46875 2.78125 -6.5625 L 8.859375 -6.5625 L 8.859375 -6.734375 C 8.785156 -7.460938 8.457031 -8.054688 7.875 -8.515625 C 7.289062 -8.984375 6.628906 -9.21875 5.890625 -9.21875 Z M 5.890625 -9.21875 "/></g></g></g><g fill="#ffffff" fill-opacity="1"><g transform="translate(244.401413, 180.27876)"><g/></g></g><g fill="#ffffff" fill-opacity="1"><g transform="translate(250.107, 180.27876)"><g><path d="M 3.734375 -12.515625 L 3.734375 -8.265625 L 8.796875 -8.265625 C 9.078125 -8.265625 9.3125 -8.171875 9.5 -7.984375 C 9.6875 -7.804688 9.78125 -7.578125 9.78125 -7.296875 C 9.78125 -7.046875 9.6875 -6.832031 9.5 -6.65625 C 9.3125 -6.476562 9.078125 -6.390625 8.796875 -6.390625 L 3.734375 -6.390625 L 3.734375 -0.984375 C 3.734375 -0.710938 3.628906 -0.476562 3.421875 -0.28125 C 3.222656 -0.09375 2.988281 0 2.71875 0 C 2.425781 0 2.179688 -0.09375 1.984375 -0.28125 C 1.796875 -0.476562 1.703125 -0.710938 1.703125 -0.984375 L 1.703125 -13.421875 C 1.703125 -13.703125 1.796875 -13.9375 1.984375 -14.125 C 2.179688 -14.320312 2.421875 -14.421875 2.703125 -14.421875 L 9.71875 -14.421875 C 10.007812 -14.421875 10.242188 -14.328125 10.421875 -14.140625 C 10.609375 -13.960938 10.703125 -13.734375 10.703125 -13.453125 C 10.703125 -13.203125 10.601562 -12.984375 10.40625 -12.796875 C 10.21875 -12.609375 9.988281 -12.515625 9.71875 -12.515625 Z M 3.734375 -12.515625 "/></g></g></g><g fill="#ffffff" fill-opacity="1"><g transform="translate(261.72415, 180.27876)"><g><path d="M 10.9375 -5.8125 C 10.925781 -5.5625 10.820312 -5.347656 10.625 -5.171875 C 10.4375 -5.003906 10.210938 -4.921875 9.953125 -4.921875 L 2.703125 -4.921875 C 2.796875 -3.921875 3.175781 -3.117188 3.84375 -2.515625 C 4.507812 -1.910156 5.320312 -1.609375 6.28125 -1.609375 C 6.9375 -1.609375 7.46875 -1.703125 7.875 -1.890625 C 8.289062 -2.085938 8.660156 -2.335938 8.984375 -2.640625 C 9.179688 -2.765625 9.378906 -2.828125 9.578125 -2.828125 C 9.804688 -2.828125 10 -2.742188 10.15625 -2.578125 C 10.320312 -2.410156 10.40625 -2.21875 10.40625 -2 C 10.40625 -1.707031 10.265625 -1.445312 9.984375 -1.21875 C 9.585938 -0.820312 9.054688 -0.484375 8.390625 -0.203125 C 7.734375 0.0664062 7.066406 0.203125 6.390625 0.203125 C 5.273438 0.203125 4.296875 -0.0234375 3.453125 -0.484375 C 2.609375 -0.953125 1.953125 -1.601562 1.484375 -2.4375 C 1.023438 -3.28125 0.796875 -4.234375 0.796875 -5.296875 C 0.796875 -6.441406 1.03125 -7.453125 1.5 -8.328125 C 1.976562 -9.203125 2.601562 -9.867188 3.375 -10.328125 C 4.15625 -10.796875 4.992188 -11.03125 5.890625 -11.03125 C 6.765625 -11.03125 7.585938 -10.800781 8.359375 -10.34375 C 9.128906 -9.894531 9.75 -9.273438 10.21875 -8.484375 C 10.6875 -7.691406 10.925781 -6.800781 10.9375 -5.8125 Z M 5.890625 -9.21875 C 5.117188 -9.21875 4.453125 -9 3.890625 -8.5625 C 3.328125 -8.132812 2.957031 -7.46875 2.78125 -6.5625 L 8.859375 -6.5625 L 8.859375 -6.734375 C 8.785156 -7.460938 8.457031 -8.054688 7.875 -8.515625 C 7.289062 -8.984375 6.628906 -9.21875 5.890625 -9.21875 Z M 5.890625 -9.21875 "/></g></g></g><g fill="#ffffff" fill-opacity="1"><g transform="translate(273.464888, 180.27876)"><g><path d="M 6.84375 -11.03125 C 7.195312 -11.03125 7.503906 -10.9375 7.765625 -10.75 C 8.023438 -10.570312 8.15625 -10.34375 8.15625 -10.0625 C 8.15625 -9.738281 8.066406 -9.488281 7.890625 -9.3125 C 7.722656 -9.144531 7.515625 -9.0625 7.265625 -9.0625 C 7.140625 -9.0625 6.957031 -9.101562 6.71875 -9.1875 C 6.425781 -9.28125 6.195312 -9.328125 6.03125 -9.328125 C 5.601562 -9.328125 5.1875 -9.175781 4.78125 -8.875 C 4.382812 -8.582031 4.054688 -8.179688 3.796875 -7.671875 C 3.546875 -7.160156 3.421875 -6.585938 3.421875 -5.953125 L 3.421875 -0.984375 C 3.421875 -0.710938 3.328125 -0.476562 3.140625 -0.28125 C 2.953125 -0.09375 2.71875 0 2.4375 0 C 2.144531 0 1.910156 -0.09375 1.734375 -0.28125 C 1.554688 -0.46875 1.46875 -0.703125 1.46875 -0.984375 L 1.46875 -9.796875 C 1.46875 -10.078125 1.554688 -10.3125 1.734375 -10.5 C 1.921875 -10.695312 2.15625 -10.796875 2.4375 -10.796875 C 2.71875 -10.796875 2.953125 -10.695312 3.140625 -10.5 C 3.328125 -10.3125 3.421875 -10.078125 3.421875 -9.796875 L 3.421875 -8.75 C 3.722656 -9.425781 4.175781 -9.972656 4.78125 -10.390625 C 5.382812 -10.804688 6.070312 -11.019531 6.84375 -11.03125 Z M 6.84375 -11.03125 "/></g></g></g><g fill="#ffffff" fill-opacity="1"><g transform="translate(281.971783, 180.27876)"><g><path d="M 10.9375 -5.8125 C 10.925781 -5.5625 10.820312 -5.347656 10.625 -5.171875 C 10.4375 -5.003906 10.210938 -4.921875 9.953125 -4.921875 L 2.703125 -4.921875 C 2.796875 -3.921875 3.175781 -3.117188 3.84375 -2.515625 C 4.507812 -1.910156 5.320312 -1.609375 6.28125 -1.609375 C 6.9375 -1.609375 7.46875 -1.703125 7.875 -1.890625 C 8.289062 -2.085938 8.660156 -2.335938 8.984375 -2.640625 C 9.179688 -2.765625 9.378906 -2.828125 9.578125 -2.828125 C 9.804688 -2.828125 10 -2.742188 10.15625 -2.578125 C 10.320312 -2.410156 10.40625 -2.21875 10.40625 -2 C 10.40625 -1.707031 10.265625 -1.445312 9.984375 -1.21875 C 9.585938 -0.820312 9.054688 -0.484375 8.390625 -0.203125 C 7.734375 0.0664062 7.066406 0.203125 6.390625 0.203125 C 5.273438 0.203125 4.296875 -0.0234375 3.453125 -0.484375 C 2.609375 -0.953125 1.953125 -1.601562 1.484375 -2.4375 C 1.023438 -3.28125 0.796875 -4.234375 0.796875 -5.296875 C 0.796875 -6.441406 1.03125 -7.453125 1.5 -8.328125 C 1.976562 -9.203125 2.601562 -9.867188 3.375 -10.328125 C 4.15625 -10.796875 4.992188 -11.03125 5.890625 -11.03125 C 6.765625 -11.03125 7.585938 -10.800781 8.359375 -10.34375 C 9.128906 -9.894531 9.75 -9.273438 10.21875 -8.484375 C 10.6875 -7.691406 10.925781 -6.800781 10.9375 -5.8125 Z M 5.890625 -9.21875 C 5.117188 -9.21875 4.453125 -9 3.890625 -8.5625 C 3.328125 -8.132812 2.957031 -7.46875 2.78125 -6.5625 L 8.859375 -6.5625 L 8.859375 -6.734375 C 8.785156 -7.460938 8.457031 -8.054688 7.875 -8.515625 C 7.289062 -8.984375 6.628906 -9.21875 5.890625 -9.21875 Z M 5.890625 -9.21875 "/></g></g></g><g fill="#ffffff" fill-opacity="1"><g transform="translate(293.712515, 180.27876)"><g><path d="M 10.21875 -15.234375 C 10.5 -15.234375 10.734375 -15.140625 10.921875 -14.953125 C 11.109375 -14.773438 11.203125 -14.539062 11.203125 -14.25 L 11.203125 -0.984375 C 11.203125 -0.710938 11.109375 -0.476562 10.921875 -0.28125 C 10.734375 -0.09375 10.5 0 10.21875 0 C 9.925781 0 9.691406 -0.09375 9.515625 -0.28125 C 9.335938 -0.46875 9.25 -0.703125 9.25 -0.984375 L 9.25 -1.5625 C 8.90625 -1.070312 8.421875 -0.65625 7.796875 -0.3125 C 7.171875 0.03125 6.5 0.203125 5.78125 0.203125 C 4.851562 0.203125 4.007812 -0.0351562 3.25 -0.515625 C 2.5 -0.992188 1.898438 -1.660156 1.453125 -2.515625 C 1.015625 -3.378906 0.796875 -4.347656 0.796875 -5.421875 C 0.796875 -6.484375 1.007812 -7.441406 1.4375 -8.296875 C 1.875 -9.160156 2.46875 -9.832031 3.21875 -10.3125 C 3.976562 -10.789062 4.8125 -11.03125 5.71875 -11.03125 C 6.445312 -11.03125 7.117188 -10.878906 7.734375 -10.578125 C 8.359375 -10.273438 8.863281 -9.882812 9.25 -9.40625 L 9.25 -14.25 C 9.25 -14.539062 9.335938 -14.773438 9.515625 -14.953125 C 9.691406 -15.140625 9.925781 -15.234375 10.21875 -15.234375 Z M 6.015625 -1.609375 C 6.660156 -1.609375 7.234375 -1.769531 7.734375 -2.09375 C 8.234375 -2.425781 8.625 -2.878906 8.90625 -3.453125 C 9.1875 -4.035156 9.328125 -4.691406 9.328125 -5.421875 C 9.328125 -6.128906 9.1875 -6.773438 8.90625 -7.359375 C 8.625 -7.941406 8.234375 -8.394531 7.734375 -8.71875 C 7.234375 -9.050781 6.660156 -9.21875 6.015625 -9.21875 C 5.367188 -9.21875 4.796875 -9.050781 4.296875 -8.71875 C 3.796875 -8.394531 3.40625 -7.941406 3.125 -7.359375 C 2.84375 -6.773438 2.703125 -6.128906 2.703125 -5.421875 C 2.703125 -4.691406 2.84375 -4.035156 3.125 -3.453125 C 3.40625 -2.878906 3.796875 -2.425781 4.296875 -2.09375 C 4.796875 -1.769531 5.367188 -1.609375 6.015625 -1.609375 Z M 6.015625 -1.609375 "/></g></g></g><g fill="#ffffff" fill-opacity="1"><g transform="translate(306.35955, 180.27876)"><g><path d="M 9.5 -10.890625 C 9.78125 -10.890625 10.015625 -10.789062 10.203125 -10.59375 C 10.390625 -10.40625 10.484375 -10.175781 10.484375 -9.90625 L 10.484375 -1.015625 C 10.484375 0.703125 10.007812 1.988281 9.0625 2.84375 C 8.113281 3.695312 6.863281 4.125 5.3125 4.125 C 4.800781 4.125 4.296875 4.070312 3.796875 3.96875 C 3.304688 3.875 2.90625 3.742188 2.59375 3.578125 C 2.082031 3.347656 1.828125 3.035156 1.828125 2.640625 C 1.828125 2.566406 1.84375 2.476562 1.875 2.375 C 1.957031 2.132812 2.070312 1.953125 2.21875 1.828125 C 2.375 1.703125 2.546875 1.640625 2.734375 1.640625 C 2.847656 1.640625 2.953125 1.660156 3.046875 1.703125 C 3.472656 1.898438 3.847656 2.050781 4.171875 2.15625 C 4.503906 2.269531 4.890625 2.328125 5.328125 2.328125 C 7.460938 2.328125 8.53125 1.234375 8.53125 -0.953125 L 8.53125 -1.359375 C 8.15625 -0.867188 7.675781 -0.484375 7.09375 -0.203125 C 6.507812 0.0664062 5.84375 0.203125 5.09375 0.203125 C 3.945312 0.203125 3.054688 -0.160156 2.421875 -0.890625 C 1.785156 -1.617188 1.46875 -2.570312 1.46875 -3.75 L 1.46875 -9.90625 C 1.46875 -10.195312 1.554688 -10.429688 1.734375 -10.609375 C 1.910156 -10.796875 2.144531 -10.890625 2.4375 -10.890625 C 2.71875 -10.890625 2.953125 -10.789062 3.140625 -10.59375 C 3.328125 -10.40625 3.421875 -10.175781 3.421875 -9.90625 L 3.421875 -4.265625 C 3.421875 -3.359375 3.617188 -2.6875 4.015625 -2.25 C 4.410156 -1.820312 5.015625 -1.609375 5.828125 -1.609375 C 6.609375 -1.609375 7.253906 -1.851562 7.765625 -2.34375 C 8.273438 -2.84375 8.53125 -3.484375 8.53125 -4.265625 L 8.53125 -9.90625 C 8.53125 -10.195312 8.617188 -10.429688 8.796875 -10.609375 C 8.972656 -10.796875 9.207031 -10.890625 9.5 -10.890625 Z M 9.5 -10.890625 "/></g></g></g><g fill="#ffffff" fill-opacity="1"><g transform="translate(318.285673, 180.27876)"><g><path d="M 10.9375 -5.8125 C 10.925781 -5.5625 10.820312 -5.347656 10.625 -5.171875 C 10.4375 -5.003906 10.210938 -4.921875 9.953125 -4.921875 L 2.703125 -4.921875 C 2.796875 -3.921875 3.175781 -3.117188 3.84375 -2.515625 C 4.507812 -1.910156 5.320312 -1.609375 6.28125 -1.609375 C 6.9375 -1.609375 7.46875 -1.703125 7.875 -1.890625 C 8.289062 -2.085938 8.660156 -2.335938 8.984375 -2.640625 C 9.179688 -2.765625 9.378906 -2.828125 9.578125 -2.828125 C 9.804688 -2.828125 10 -2.742188 10.15625 -2.578125 C 10.320312 -2.410156 10.40625 -2.21875 10.40625 -2 C 10.40625 -1.707031 10.265625 -1.445312 9.984375 -1.21875 C 9.585938 -0.820312 9.054688 -0.484375 8.390625 -0.203125 C 7.734375 0.0664062 7.066406 0.203125 6.390625 0.203125 C 5.273438 0.203125 4.296875 -0.0234375 3.453125 -0.484375 C 2.609375 -0.953125 1.953125 -1.601562 1.484375 -2.4375 C 1.023438 -3.28125 0.796875 -4.234375 0.796875 -5.296875 C 0.796875 -6.441406 1.03125 -7.453125 1.5 -8.328125 C 1.976562 -9.203125 2.601562 -9.867188 3.375 -10.328125 C 4.15625 -10.796875 4.992188 -11.03125 5.890625 -11.03125 C 6.765625 -11.03125 7.585938 -10.800781 8.359375 -10.34375 C 9.128906 -9.894531 9.75 -9.273438 10.21875 -8.484375 C 10.6875 -7.691406 10.925781 -6.800781 10.9375 -5.8125 Z M 5.890625 -9.21875 C 5.117188 -9.21875 4.453125 -9 3.890625 -8.5625 C 3.328125 -8.132812 2.957031 -7.46875 2.78125 -6.5625 L 8.859375 -6.5625 L 8.859375 -6.734375 C 8.785156 -7.460938 8.457031 -8.054688 7.875 -8.515625 C 7.289062 -8.984375 6.628906 -9.21875 5.890625 -9.21875 Z M 5.890625 -9.21875 "/></g></g></g><g fill="#ffffff" fill-opacity="1"><g transform="translate(163.015373, 195.56842)"><g><path d="M 4.84375 -7.796875 C 3.90625 -7.796875 3.160156 -7.484375 2.609375 -6.859375 C 2.066406 -6.234375 1.796875 -5.375 1.796875 -4.28125 C 1.796875 -3.164062 2.054688 -2.300781 2.578125 -1.6875 C 3.109375 -1.070312 3.859375 -0.765625 4.828125 -0.765625 C 5.429688 -0.765625 6.113281 -0.875 6.875 -1.09375 L 6.875 -0.21875 C 6.28125 0.0078125 5.550781 0.125 4.6875 0.125 C 3.425781 0.125 2.453125 -0.257812 1.765625 -1.03125 C 1.078125 -1.800781 0.734375 -2.890625 0.734375 -4.296875 C 0.734375 -5.179688 0.894531 -5.953125 1.21875 -6.609375 C 1.550781 -7.273438 2.03125 -7.785156 2.65625 -8.140625 C 3.28125 -8.503906 4.015625 -8.6875 4.859375 -8.6875 C 5.753906 -8.6875 6.539062 -8.523438 7.21875 -8.203125 L 6.796875 -7.34375 C 6.140625 -7.644531 5.488281 -7.796875 4.84375 -7.796875 Z M 4.84375 -7.796875 "/></g></g></g><g fill="#ffffff" fill-opacity="1"><g transform="translate(172.253717, 195.56842)"><g><path d="M 6.578125 -3.21875 C 6.578125 -2.164062 6.3125 -1.34375 5.78125 -0.75 C 5.257812 -0.164062 4.53125 0.125 3.59375 0.125 C 3.019531 0.125 2.507812 -0.0078125 2.0625 -0.28125 C 1.625 -0.550781 1.28125 -0.9375 1.03125 -1.4375 C 0.789062 -1.945312 0.671875 -2.539062 0.671875 -3.21875 C 0.671875 -4.257812 0.929688 -5.070312 1.453125 -5.65625 C 1.984375 -6.25 2.710938 -6.546875 3.640625 -6.546875 C 4.535156 -6.546875 5.25 -6.242188 5.78125 -5.640625 C 6.3125 -5.046875 6.578125 -4.238281 6.578125 -3.21875 Z M 1.6875 -3.21875 C 1.6875 -2.394531 1.847656 -1.769531 2.171875 -1.34375 C 2.503906 -0.914062 2.988281 -0.703125 3.625 -0.703125 C 4.257812 -0.703125 4.738281 -0.914062 5.0625 -1.34375 C 5.394531 -1.769531 5.5625 -2.394531 5.5625 -3.21875 C 5.5625 -4.03125 5.394531 -4.648438 5.0625 -5.078125 C 4.738281 -5.503906 4.253906 -5.71875 3.609375 -5.71875 C 2.972656 -5.71875 2.492188 -5.503906 2.171875 -5.078125 C 1.847656 -4.660156 1.6875 -4.039062 1.6875 -3.21875 Z M 1.6875 -3.21875 "/></g></g></g><g fill="#ffffff" fill-opacity="1"><g transform="translate(181.169794, 195.56842)"><g><path d="M 5.421875 0 L 5.421875 -4.15625 C 5.421875 -4.675781 5.300781 -5.066406 5.0625 -5.328125 C 4.832031 -5.585938 4.460938 -5.71875 3.953125 -5.71875 C 3.273438 -5.71875 2.78125 -5.535156 2.46875 -5.171875 C 2.15625 -4.804688 2 -4.207031 2 -3.375 L 2 0 L 1.03125 0 L 1.03125 -6.421875 L 1.828125 -6.421875 L 1.984375 -5.546875 L 2.03125 -5.546875 C 2.226562 -5.859375 2.503906 -6.101562 2.859375 -6.28125 C 3.222656 -6.457031 3.625 -6.546875 4.0625 -6.546875 C 4.84375 -6.546875 5.425781 -6.359375 5.8125 -5.984375 C 6.207031 -5.609375 6.40625 -5.007812 6.40625 -4.1875 L 6.40625 0 Z M 5.421875 0 "/></g></g></g><g fill="#ffffff" fill-opacity="1"><g transform="translate(190.20306, 195.56842)"><g><path d="M 3.59375 0.125 C 2.664062 0.125 1.945312 -0.160156 1.4375 -0.734375 C 0.925781 -1.304688 0.671875 -2.117188 0.671875 -3.171875 C 0.671875 -4.242188 0.929688 -5.070312 1.453125 -5.65625 C 1.972656 -6.25 2.707031 -6.546875 3.65625 -6.546875 C 3.96875 -6.546875 4.273438 -6.507812 4.578125 -6.4375 C 4.890625 -6.375 5.132812 -6.296875 5.3125 -6.203125 L 5.015625 -5.375 C 4.796875 -5.46875 4.5625 -5.539062 4.3125 -5.59375 C 4.0625 -5.644531 3.835938 -5.671875 3.640625 -5.671875 C 2.335938 -5.671875 1.6875 -4.84375 1.6875 -3.1875 C 1.6875 -2.394531 1.84375 -1.785156 2.15625 -1.359375 C 2.476562 -0.941406 2.953125 -0.734375 3.578125 -0.734375 C 4.109375 -0.734375 4.65625 -0.847656 5.21875 -1.078125 L 5.21875 -0.21875 C 4.789062 0.0078125 4.25 0.125 3.59375 0.125 Z M 3.59375 0.125 "/></g></g></g><g fill="#ffffff" fill-opacity="1"><g transform="translate(197.583981, 195.56842)"><g><path d="M 3.75 0.125 C 2.800781 0.125 2.050781 -0.164062 1.5 -0.75 C 0.945312 -1.332031 0.671875 -2.132812 0.671875 -3.15625 C 0.671875 -4.195312 0.925781 -5.019531 1.4375 -5.625 C 1.945312 -6.238281 2.632812 -6.546875 3.5 -6.546875 C 4.300781 -6.546875 4.9375 -6.28125 5.40625 -5.75 C 5.875 -5.21875 6.109375 -4.519531 6.109375 -3.65625 L 6.109375 -3.03125 L 1.6875 -3.03125 C 1.707031 -2.28125 1.894531 -1.707031 2.25 -1.3125 C 2.613281 -0.925781 3.125 -0.734375 3.78125 -0.734375 C 4.46875 -0.734375 5.148438 -0.878906 5.828125 -1.171875 L 5.828125 -0.296875 C 5.484375 -0.148438 5.15625 -0.046875 4.84375 0.015625 C 4.539062 0.0859375 4.175781 0.125 3.75 0.125 Z M 3.484375 -5.71875 C 2.960938 -5.71875 2.546875 -5.550781 2.234375 -5.21875 C 1.929688 -4.882812 1.753906 -4.421875 1.703125 -3.828125 L 5.0625 -3.828125 C 5.0625 -4.441406 4.925781 -4.910156 4.65625 -5.234375 C 4.382812 -5.554688 3.992188 -5.71875 3.484375 -5.71875 Z M 3.484375 -5.71875 "/></g></g></g><g fill="#ffffff" fill-opacity="1"><g transform="translate(205.984433, 195.56842)"><g><path d="M 4.015625 0.125 C 3.597656 0.125 3.21875 0.046875 2.875 -0.109375 C 2.53125 -0.265625 2.238281 -0.503906 2 -0.828125 L 1.9375 -0.828125 C 1.976562 -0.453125 2 -0.0976562 2 0.234375 L 2 2.890625 L 1.03125 2.890625 L 1.03125 -6.421875 L 1.828125 -6.421875 L 1.953125 -5.546875 L 2 -5.546875 C 2.25 -5.898438 2.539062 -6.15625 2.875 -6.3125 C 3.207031 -6.46875 3.585938 -6.546875 4.015625 -6.546875 C 4.867188 -6.546875 5.523438 -6.253906 5.984375 -5.671875 C 6.453125 -5.085938 6.6875 -4.269531 6.6875 -3.21875 C 6.6875 -2.164062 6.453125 -1.34375 5.984375 -0.75 C 5.515625 -0.164062 4.859375 0.125 4.015625 0.125 Z M 3.875 -5.71875 C 3.21875 -5.71875 2.742188 -5.535156 2.453125 -5.171875 C 2.160156 -4.804688 2.007812 -4.226562 2 -3.4375 L 2 -3.21875 C 2 -2.3125 2.148438 -1.664062 2.453125 -1.28125 C 2.753906 -0.894531 3.238281 -0.703125 3.90625 -0.703125 C 4.457031 -0.703125 4.890625 -0.925781 5.203125 -1.375 C 5.515625 -1.820312 5.671875 -2.441406 5.671875 -3.234375 C 5.671875 -4.035156 5.515625 -4.648438 5.203125 -5.078125 C 4.890625 -5.503906 4.445312 -5.71875 3.875 -5.71875 Z M 3.875 -5.71875 "/></g></g></g><g fill="#ffffff" fill-opacity="1"><g transform="translate(215.005982, 195.56842)"><g><path d="M 3.109375 -0.6875 C 3.273438 -0.6875 3.4375 -0.695312 3.59375 -0.71875 C 3.757812 -0.75 3.890625 -0.773438 3.984375 -0.796875 L 3.984375 -0.0625 C 3.878906 -0.0078125 3.722656 0.03125 3.515625 0.0625 C 3.316406 0.101562 3.132812 0.125 2.96875 0.125 C 1.726562 0.125 1.109375 -0.53125 1.109375 -1.84375 L 1.109375 -5.671875 L 0.1875 -5.671875 L 0.1875 -6.140625 L 1.109375 -6.546875 L 1.515625 -7.90625 L 2.078125 -7.90625 L 2.078125 -6.421875 L 3.9375 -6.421875 L 3.9375 -5.671875 L 2.078125 -5.671875 L 2.078125 -1.890625 C 2.078125 -1.503906 2.164062 -1.207031 2.34375 -1 C 2.53125 -0.789062 2.785156 -0.6875 3.109375 -0.6875 Z M 3.109375 -0.6875 "/></g></g></g><g fill="#ffffff" fill-opacity="1"><g transform="translate(220.910343, 195.56842)"><g><path d="M 3.75 0.125 C 2.800781 0.125 2.050781 -0.164062 1.5 -0.75 C 0.945312 -1.332031 0.671875 -2.132812 0.671875 -3.15625 C 0.671875 -4.195312 0.925781 -5.019531 1.4375 -5.625 C 1.945312 -6.238281 2.632812 -6.546875 3.5 -6.546875 C 4.300781 -6.546875 4.9375 -6.28125 5.40625 -5.75 C 5.875 -5.21875 6.109375 -4.519531 6.109375 -3.65625 L 6.109375 -3.03125 L 1.6875 -3.03125 C 1.707031 -2.28125 1.894531 -1.707031 2.25 -1.3125 C 2.613281 -0.925781 3.125 -0.734375 3.78125 -0.734375 C 4.46875 -0.734375 5.148438 -0.878906 5.828125 -1.171875 L 5.828125 -0.296875 C 5.484375 -0.148438 5.15625 -0.046875 4.84375 0.015625 C 4.539062 0.0859375 4.175781 0.125 3.75 0.125 Z M 3.484375 -5.71875 C 2.960938 -5.71875 2.546875 -5.550781 2.234375 -5.21875 C 1.929688 -4.882812 1.753906 -4.421875 1.703125 -3.828125 L 5.0625 -3.828125 C 5.0625 -4.441406 4.925781 -4.910156 4.65625 -5.234375 C 4.382812 -5.554688 3.992188 -5.71875 3.484375 -5.71875 Z M 3.484375 -5.71875 "/></g></g></g><g fill="#ffffff" fill-opacity="1"><g transform="translate(229.310798, 195.56842)"><g><path d="M 1.953125 -6.421875 L 1.953125 -2.25 C 1.953125 -1.726562 2.066406 -1.335938 2.296875 -1.078125 C 2.535156 -0.828125 2.910156 -0.703125 3.421875 -0.703125 C 4.097656 -0.703125 4.585938 -0.882812 4.890625 -1.25 C 5.203125 -1.613281 5.359375 -2.210938 5.359375 -3.046875 L 5.359375 -6.421875 L 6.328125 -6.421875 L 6.328125 0 L 5.53125 0 L 5.390625 -0.859375 L 5.34375 -0.859375 C 5.144531 -0.546875 4.867188 -0.300781 4.515625 -0.125 C 4.160156 0.0390625 3.753906 0.125 3.296875 0.125 C 2.515625 0.125 1.929688 -0.0625 1.546875 -0.4375 C 1.160156 -0.8125 0.96875 -1.40625 0.96875 -2.21875 L 0.96875 -6.421875 Z M 1.953125 -6.421875 "/></g></g></g><g fill="#ffffff" fill-opacity="1"><g transform="translate(238.344066, 195.56842)"><g><path d="M 3.96875 -6.546875 C 4.25 -6.546875 4.503906 -6.519531 4.734375 -6.46875 L 4.59375 -5.5625 C 4.332031 -5.625 4.097656 -5.65625 3.890625 -5.65625 C 3.367188 -5.65625 2.921875 -5.441406 2.546875 -5.015625 C 2.179688 -4.597656 2 -4.078125 2 -3.453125 L 2 0 L 1.03125 0 L 1.03125 -6.421875 L 1.828125 -6.421875 L 1.953125 -5.234375 L 2 -5.234375 C 2.226562 -5.648438 2.507812 -5.972656 2.84375 -6.203125 C 3.1875 -6.429688 3.5625 -6.546875 3.96875 -6.546875 Z M 3.96875 -6.546875 "/></g></g></g><g fill="#ffffff" fill-opacity="1"><g transform="translate(244.910536, 195.56842)"><g/></g></g><g fill="#ffffff" fill-opacity="1"><g transform="translate(249.695757, 195.56842)"><g><path d="M 5.40625 -0.859375 L 5.34375 -0.859375 C 4.894531 -0.203125 4.222656 0.125 3.328125 0.125 C 2.492188 0.125 1.84375 -0.160156 1.375 -0.734375 C 0.90625 -1.316406 0.671875 -2.132812 0.671875 -3.1875 C 0.671875 -4.25 0.90625 -5.070312 1.375 -5.65625 C 1.84375 -6.25 2.492188 -6.546875 3.328125 -6.546875 C 4.203125 -6.546875 4.875 -6.226562 5.34375 -5.59375 L 5.421875 -5.59375 L 5.375 -6.046875 L 5.34375 -6.5 L 5.34375 -9.125 L 6.328125 -9.125 L 6.328125 0 L 5.53125 0 Z M 3.453125 -0.703125 C 4.117188 -0.703125 4.597656 -0.878906 4.890625 -1.234375 C 5.191406 -1.597656 5.34375 -2.179688 5.34375 -2.984375 L 5.34375 -3.1875 C 5.34375 -4.101562 5.191406 -4.753906 4.890625 -5.140625 C 4.585938 -5.523438 4.109375 -5.71875 3.453125 -5.71875 C 2.878906 -5.71875 2.441406 -5.492188 2.140625 -5.046875 C 1.835938 -4.609375 1.6875 -3.988281 1.6875 -3.1875 C 1.6875 -2.363281 1.832031 -1.742188 2.125 -1.328125 C 2.425781 -0.910156 2.867188 -0.703125 3.453125 -0.703125 Z M 3.453125 -0.703125 "/></g></g></g><g fill="#ffffff" fill-opacity="1"><g transform="translate(258.717306, 195.56842)"><g><path d="M 3.75 0.125 C 2.800781 0.125 2.050781 -0.164062 1.5 -0.75 C 0.945312 -1.332031 0.671875 -2.132812 0.671875 -3.15625 C 0.671875 -4.195312 0.925781 -5.019531 1.4375 -5.625 C 1.945312 -6.238281 2.632812 -6.546875 3.5 -6.546875 C 4.300781 -6.546875 4.9375 -6.28125 5.40625 -5.75 C 5.875 -5.21875 6.109375 -4.519531 6.109375 -3.65625 L 6.109375 -3.03125 L 1.6875 -3.03125 C 1.707031 -2.28125 1.894531 -1.707031 2.25 -1.3125 C 2.613281 -0.925781 3.125 -0.734375 3.78125 -0.734375 C 4.46875 -0.734375 5.148438 -0.878906 5.828125 -1.171875 L 5.828125 -0.296875 C 5.484375 -0.148438 5.15625 -0.046875 4.84375 0.015625 C 4.539062 0.0859375 4.175781 0.125 3.75 0.125 Z M 3.484375 -5.71875 C 2.960938 -5.71875 2.546875 -5.550781 2.234375 -5.21875 C 1.929688 -4.882812 1.753906 -4.421875 1.703125 -3.828125 L 5.0625 -3.828125 C 5.0625 -4.441406 4.925781 -4.910156 4.65625 -5.234375 C 4.382812 -5.554688 3.992188 -5.71875 3.484375 -5.71875 Z M 2.75 -7.421875 C 2.9375 -7.660156 3.140625 -7.953125 3.359375 -8.296875 C 3.578125 -8.640625 3.75 -8.9375 3.875 -9.1875 L 5.0625 -9.1875 L 5.0625 -9.078125 C 4.882812 -8.816406 4.625 -8.5 4.28125 -8.125 C 3.945312 -7.757812 3.65625 -7.472656 3.40625 -7.265625 L 2.75 -7.265625 Z M 2.75 -7.421875 "/></g></g></g><g fill="#ffffff" fill-opacity="1"><g transform="translate(267.117761, 195.56842)"><g><path d="M 2.4375 0 L 0 -6.421875 L 1.046875 -6.421875 L 2.421875 -2.609375 C 2.734375 -1.722656 2.921875 -1.144531 2.984375 -0.875 L 3.03125 -0.875 C 3.070312 -1.082031 3.207031 -1.507812 3.4375 -2.15625 C 3.664062 -2.8125 4.175781 -4.234375 4.96875 -6.421875 L 6.015625 -6.421875 L 3.578125 0 Z M 2.4375 0 "/></g></g></g><g fill="#ffffff" fill-opacity="1"><g transform="translate(274.797512, 195.56842)"><g><path d="M 3.75 0.125 C 2.800781 0.125 2.050781 -0.164062 1.5 -0.75 C 0.945312 -1.332031 0.671875 -2.132812 0.671875 -3.15625 C 0.671875 -4.195312 0.925781 -5.019531 1.4375 -5.625 C 1.945312 -6.238281 2.632812 -6.546875 3.5 -6.546875 C 4.300781 -6.546875 4.9375 -6.28125 5.40625 -5.75 C 5.875 -5.21875 6.109375 -4.519531 6.109375 -3.65625 L 6.109375 -3.03125 L 1.6875 -3.03125 C 1.707031 -2.28125 1.894531 -1.707031 2.25 -1.3125 C 2.613281 -0.925781 3.125 -0.734375 3.78125 -0.734375 C 4.46875 -0.734375 5.148438 -0.878906 5.828125 -1.171875 L 5.828125 -0.296875 C 5.484375 -0.148438 5.15625 -0.046875 4.84375 0.015625 C 4.539062 0.0859375 4.175781 0.125 3.75 0.125 Z M 3.484375 -5.71875 C 2.960938 -5.71875 2.546875 -5.550781 2.234375 -5.21875 C 1.929688 -4.882812 1.753906 -4.421875 1.703125 -3.828125 L 5.0625 -3.828125 C 5.0625 -4.441406 4.925781 -4.910156 4.65625 -5.234375 C 4.382812 -5.554688 3.992188 -5.71875 3.484375 -5.71875 Z M 3.484375 -5.71875 "/></g></g></g><g fill="#ffffff" fill-opacity="1"><g transform="translate(283.197967, 195.56842)"><g><path d="M 2 0 L 1.03125 0 L 1.03125 -9.125 L 2 -9.125 Z M 2 0 "/></g></g></g><g fill="#ffffff" fill-opacity="1"><g transform="translate(287.901157, 195.56842)"><g><path d="M 6.578125 -3.21875 C 6.578125 -2.164062 6.3125 -1.34375 5.78125 -0.75 C 5.257812 -0.164062 4.53125 0.125 3.59375 0.125 C 3.019531 0.125 2.507812 -0.0078125 2.0625 -0.28125 C 1.625 -0.550781 1.28125 -0.9375 1.03125 -1.4375 C 0.789062 -1.945312 0.671875 -2.539062 0.671875 -3.21875 C 0.671875 -4.257812 0.929688 -5.070312 1.453125 -5.65625 C 1.984375 -6.25 2.710938 -6.546875 3.640625 -6.546875 C 4.535156 -6.546875 5.25 -6.242188 5.78125 -5.640625 C 6.3125 -5.046875 6.578125 -4.238281 6.578125 -3.21875 Z M 1.6875 -3.21875 C 1.6875 -2.394531 1.847656 -1.769531 2.171875 -1.34375 C 2.503906 -0.914062 2.988281 -0.703125 3.625 -0.703125 C 4.257812 -0.703125 4.738281 -0.914062 5.0625 -1.34375 C 5.394531 -1.769531 5.5625 -2.394531 5.5625 -3.21875 C 5.5625 -4.03125 5.394531 -4.648438 5.0625 -5.078125 C 4.738281 -5.503906 4.253906 -5.71875 3.609375 -5.71875 C 2.972656 -5.71875 2.492188 -5.503906 2.171875 -5.078125 C 1.847656 -4.660156 1.6875 -4.039062 1.6875 -3.21875 Z M 1.6875 -3.21875 "/></g></g></g><g fill="#ffffff" fill-opacity="1"><g transform="translate(296.817237, 195.56842)"><g><path d="M 4.015625 0.125 C 3.597656 0.125 3.21875 0.046875 2.875 -0.109375 C 2.53125 -0.265625 2.238281 -0.503906 2 -0.828125 L 1.9375 -0.828125 C 1.976562 -0.453125 2 -0.0976562 2 0.234375 L 2 2.890625 L 1.03125 2.890625 L 1.03125 -6.421875 L 1.828125 -6.421875 L 1.953125 -5.546875 L 2 -5.546875 C 2.25 -5.898438 2.539062 -6.15625 2.875 -6.3125 C 3.207031 -6.46875 3.585938 -6.546875 4.015625 -6.546875 C 4.867188 -6.546875 5.523438 -6.253906 5.984375 -5.671875 C 6.453125 -5.085938 6.6875 -4.269531 6.6875 -3.21875 C 6.6875 -2.164062 6.453125 -1.34375 5.984375 -0.75 C 5.515625 -0.164062 4.859375 0.125 4.015625 0.125 Z M 3.875 -5.71875 C 3.21875 -5.71875 2.742188 -5.535156 2.453125 -5.171875 C 2.160156 -4.804688 2.007812 -4.226562 2 -3.4375 L 2 -3.21875 C 2 -2.3125 2.148438 -1.664062 2.453125 -1.28125 C 2.753906 -0.894531 3.238281 -0.703125 3.90625 -0.703125 C 4.457031 -0.703125 4.890625 -0.925781 5.203125 -1.375 C 5.515625 -1.820312 5.671875 -2.441406 5.671875 -3.234375 C 5.671875 -4.035156 5.515625 -4.648438 5.203125 -5.078125 C 4.890625 -5.503906 4.445312 -5.71875 3.875 -5.71875 Z M 3.875 -5.71875 "/></g></g></g><g fill="#ffffff" fill-opacity="1"><g transform="translate(305.838785, 195.56842)"><g><path d="M 4.015625 0.125 C 3.597656 0.125 3.21875 0.046875 2.875 -0.109375 C 2.53125 -0.265625 2.238281 -0.503906 2 -0.828125 L 1.9375 -0.828125 C 1.976562 -0.453125 2 -0.0976562 2 0.234375 L 2 2.890625 L 1.03125 2.890625 L 1.03125 -6.421875 L 1.828125 -6.421875 L 1.953125 -5.546875 L 2 -5.546875 C 2.25 -5.898438 2.539062 -6.15625 2.875 -6.3125 C 3.207031 -6.46875 3.585938 -6.546875 4.015625 -6.546875 C 4.867188 -6.546875 5.523438 -6.253906 5.984375 -5.671875 C 6.453125 -5.085938 6.6875 -4.269531 6.6875 -3.21875 C 6.6875 -2.164062 6.453125 -1.34375 5.984375 -0.75 C 5.515625 -0.164062 4.859375 0.125 4.015625 0.125 Z M 3.875 -5.71875 C 3.21875 -5.71875 2.742188 -5.535156 2.453125 -5.171875 C 2.160156 -4.804688 2.007812 -4.226562 2 -3.4375 L 2 -3.21875 C 2 -2.3125 2.148438 -1.664062 2.453125 -1.28125 C 2.753906 -0.894531 3.238281 -0.703125 3.90625 -0.703125 C 4.457031 -0.703125 4.890625 -0.925781 5.203125 -1.375 C 5.515625 -1.820312 5.671875 -2.441406 5.671875 -3.234375 C 5.671875 -4.035156 5.515625 -4.648438 5.203125 -5.078125 C 4.890625 -5.503906 4.445312 -5.71875 3.875 -5.71875 Z M 3.875 -5.71875 "/></g></g></g><g fill="#ffffff" fill-opacity="1"><g transform="translate(314.860334, 195.56842)"><g><path d="M 3.75 0.125 C 2.800781 0.125 2.050781 -0.164062 1.5 -0.75 C 0.945312 -1.332031 0.671875 -2.132812 0.671875 -3.15625 C 0.671875 -4.195312 0.925781 -5.019531 1.4375 -5.625 C 1.945312 -6.238281 2.632812 -6.546875 3.5 -6.546875 C 4.300781 -6.546875 4.9375 -6.28125 5.40625 -5.75 C 5.875 -5.21875 6.109375 -4.519531 6.109375 -3.65625 L 6.109375 -3.03125 L 1.6875 -3.03125 C 1.707031 -2.28125 1.894531 -1.707031 2.25 -1.3125 C 2.613281 -0.925781 3.125 -0.734375 3.78125 -0.734375 C 4.46875 -0.734375 5.148438 -0.878906 5.828125 -1.171875 L 5.828125 -0.296875 C 5.484375 -0.148438 5.15625 -0.046875 4.84375 0.015625 C 4.539062 0.0859375 4.175781 0.125 3.75 0.125 Z M 3.484375 -5.71875 C 2.960938 -5.71875 2.546875 -5.550781 2.234375 -5.21875 C 1.929688 -4.882812 1.753906 -4.421875 1.703125 -3.828125 L 5.0625 -3.828125 C 5.0625 -4.441406 4.925781 -4.910156 4.65625 -5.234375 C 4.382812 -5.554688 3.992188 -5.71875 3.484375 -5.71875 Z M 3.484375 -5.71875 "/></g></g></g><g fill="#ffffff" fill-opacity="1"><g transform="translate(323.260789, 195.56842)"><g><path d="M 1.953125 -6.421875 L 1.953125 -2.25 C 1.953125 -1.726562 2.066406 -1.335938 2.296875 -1.078125 C 2.535156 -0.828125 2.910156 -0.703125 3.421875 -0.703125 C 4.097656 -0.703125 4.585938 -0.882812 4.890625 -1.25 C 5.203125 -1.613281 5.359375 -2.210938 5.359375 -3.046875 L 5.359375 -6.421875 L 6.328125 -6.421875 L 6.328125 0 L 5.53125 0 L 5.390625 -0.859375 L 5.34375 -0.859375 C 5.144531 -0.546875 4.867188 -0.300781 4.515625 -0.125 C 4.160156 0.0390625 3.753906 0.125 3.296875 0.125 C 2.515625 0.125 1.929688 -0.0625 1.546875 -0.4375 C 1.160156 -0.8125 0.96875 -1.40625 0.96875 -2.21875 L 0.96875 -6.421875 Z M 1.953125 -6.421875 "/></g></g></g><g fill="#ffffff" fill-opacity="1"><g transform="translate(332.294056, 195.56842)"><g><path d="M 3.96875 -6.546875 C 4.25 -6.546875 4.503906 -6.519531 4.734375 -6.46875 L 4.59375 -5.5625 C 4.332031 -5.625 4.097656 -5.65625 3.890625 -5.65625 C 3.367188 -5.65625 2.921875 -5.441406 2.546875 -5.015625 C 2.179688 -4.597656 2 -4.078125 2 -3.453125 L 2 0 L 1.03125 0 L 1.03125 -6.421875 L 1.828125 -6.421875 L 1.953125 -5.234375 L 2 -5.234375 C 2.226562 -5.648438 2.507812 -5.972656 2.84375 -6.203125 C 3.1875 -6.429688 3.5625 -6.546875 3.96875 -6.546875 Z M 3.96875 -6.546875 "/></g></g></g><g fill="#ffffff" fill-opacity="1"><g transform="translate(200.538812, 212.068419)"><g><path d="M 5.40625 -0.859375 L 5.34375 -0.859375 C 4.894531 -0.203125 4.222656 0.125 3.328125 0.125 C 2.492188 0.125 1.84375 -0.160156 1.375 -0.734375 C 0.90625 -1.316406 0.671875 -2.132812 0.671875 -3.1875 C 0.671875 -4.25 0.90625 -5.070312 1.375 -5.65625 C 1.84375 -6.25 2.492188 -6.546875 3.328125 -6.546875 C 4.203125 -6.546875 4.875 -6.226562 5.34375 -5.59375 L 5.421875 -5.59375 L 5.375 -6.046875 L 5.34375 -6.5 L 5.34375 -9.125 L 6.328125 -9.125 L 6.328125 0 L 5.53125 0 Z M 3.453125 -0.703125 C 4.117188 -0.703125 4.597656 -0.878906 4.890625 -1.234375 C 5.191406 -1.597656 5.34375 -2.179688 5.34375 -2.984375 L 5.34375 -3.1875 C 5.34375 -4.101562 5.191406 -4.753906 4.890625 -5.140625 C 4.585938 -5.523438 4.109375 -5.71875 3.453125 -5.71875 C 2.878906 -5.71875 2.441406 -5.492188 2.140625 -5.046875 C 1.835938 -4.609375 1.6875 -3.988281 1.6875 -3.1875 C 1.6875 -2.363281 1.832031 -1.742188 2.125 -1.328125 C 2.425781 -0.910156 2.867188 -0.703125 3.453125 -0.703125 Z M 3.453125 -0.703125 "/></g></g></g><g fill="#ffffff" fill-opacity="1"><g transform="translate(209.560359, 212.068419)"><g><path d="M 1.875 -8.5625 L 1.640625 -5.46875 L 1.015625 -5.46875 L 0.78125 -8.5625 Z M 1.875 -8.5625 "/></g></g></g><g fill="#ffffff" fill-opacity="1"><g transform="translate(213.882687, 212.068419)"><g><path d="M 4.984375 0 L 4.78125 -0.921875 L 4.734375 -0.921875 C 4.421875 -0.515625 4.101562 -0.238281 3.78125 -0.09375 C 3.46875 0.0507812 3.070312 0.125 2.59375 0.125 C 1.957031 0.125 1.457031 -0.0390625 1.09375 -0.375 C 0.726562 -0.707031 0.546875 -1.175781 0.546875 -1.78125 C 0.546875 -3.070312 1.582031 -3.75 3.65625 -3.8125 L 4.75 -3.84375 L 4.75 -4.25 C 4.75 -4.75 4.640625 -5.117188 4.421875 -5.359375 C 4.210938 -5.597656 3.867188 -5.71875 3.390625 -5.71875 C 2.847656 -5.71875 2.242188 -5.554688 1.578125 -5.234375 L 1.265625 -5.984375 C 1.585938 -6.148438 1.9375 -6.28125 2.3125 -6.375 C 2.6875 -6.476562 3.066406 -6.53125 3.453125 -6.53125 C 4.210938 -6.53125 4.773438 -6.359375 5.140625 -6.015625 C 5.515625 -5.679688 5.703125 -5.140625 5.703125 -4.390625 L 5.703125 0 Z M 2.78125 -0.6875 C 3.382812 -0.6875 3.859375 -0.851562 4.203125 -1.1875 C 4.554688 -1.519531 4.734375 -1.984375 4.734375 -2.578125 L 4.734375 -3.15625 L 3.75 -3.125 C 2.976562 -3.09375 2.421875 -2.96875 2.078125 -2.75 C 1.742188 -2.539062 1.578125 -2.210938 1.578125 -1.765625 C 1.578125 -1.410156 1.679688 -1.140625 1.890625 -0.953125 C 2.097656 -0.773438 2.394531 -0.6875 2.78125 -0.6875 Z M 2.78125 -0.6875 "/></g></g></g><g fill="#ffffff" fill-opacity="1"><g transform="translate(222.224546, 212.068419)"><g><path d="M 4.015625 0.125 C 3.597656 0.125 3.21875 0.046875 2.875 -0.109375 C 2.53125 -0.265625 2.238281 -0.503906 2 -0.828125 L 1.9375 -0.828125 C 1.976562 -0.453125 2 -0.0976562 2 0.234375 L 2 2.890625 L 1.03125 2.890625 L 1.03125 -6.421875 L 1.828125 -6.421875 L 1.953125 -5.546875 L 2 -5.546875 C 2.25 -5.898438 2.539062 -6.15625 2.875 -6.3125 C 3.207031 -6.46875 3.585938 -6.546875 4.015625 -6.546875 C 4.867188 -6.546875 5.523438 -6.253906 5.984375 -5.671875 C 6.453125 -5.085938 6.6875 -4.269531 6.6875 -3.21875 C 6.6875 -2.164062 6.453125 -1.34375 5.984375 -0.75 C 5.515625 -0.164062 4.859375 0.125 4.015625 0.125 Z M 3.875 -5.71875 C 3.21875 -5.71875 2.742188 -5.535156 2.453125 -5.171875 C 2.160156 -4.804688 2.007812 -4.226562 2 -3.4375 L 2 -3.21875 C 2 -2.3125 2.148438 -1.664062 2.453125 -1.28125 C 2.753906 -0.894531 3.238281 -0.703125 3.90625 -0.703125 C 4.457031 -0.703125 4.890625 -0.925781 5.203125 -1.375 C 5.515625 -1.820312 5.671875 -2.441406 5.671875 -3.234375 C 5.671875 -4.035156 5.515625 -4.648438 5.203125 -5.078125 C 4.890625 -5.503906 4.445312 -5.71875 3.875 -5.71875 Z M 3.875 -5.71875 "/></g></g></g><g fill="#ffffff" fill-opacity="1"><g transform="translate(231.246092, 212.068419)"><g><path d="M 4.015625 0.125 C 3.597656 0.125 3.21875 0.046875 2.875 -0.109375 C 2.53125 -0.265625 2.238281 -0.503906 2 -0.828125 L 1.9375 -0.828125 C 1.976562 -0.453125 2 -0.0976562 2 0.234375 L 2 2.890625 L 1.03125 2.890625 L 1.03125 -6.421875 L 1.828125 -6.421875 L 1.953125 -5.546875 L 2 -5.546875 C 2.25 -5.898438 2.539062 -6.15625 2.875 -6.3125 C 3.207031 -6.46875 3.585938 -6.546875 4.015625 -6.546875 C 4.867188 -6.546875 5.523438 -6.253906 5.984375 -5.671875 C 6.453125 -5.085938 6.6875 -4.269531 6.6875 -3.21875 C 6.6875 -2.164062 6.453125 -1.34375 5.984375 -0.75 C 5.515625 -0.164062 4.859375 0.125 4.015625 0.125 Z M 3.875 -5.71875 C 3.21875 -5.71875 2.742188 -5.535156 2.453125 -5.171875 C 2.160156 -4.804688 2.007812 -4.226562 2 -3.4375 L 2 -3.21875 C 2 -2.3125 2.148438 -1.664062 2.453125 -1.28125 C 2.753906 -0.894531 3.238281 -0.703125 3.90625 -0.703125 C 4.457031 -0.703125 4.890625 -0.925781 5.203125 -1.375 C 5.515625 -1.820312 5.671875 -2.441406 5.671875 -3.234375 C 5.671875 -4.035156 5.515625 -4.648438 5.203125 -5.078125 C 4.890625 -5.503906 4.445312 -5.71875 3.875 -5.71875 Z M 3.875 -5.71875 "/></g></g></g><g fill="#ffffff" fill-opacity="1"><g transform="translate(240.267638, 212.068419)"><g><path d="M 2 0 L 1.03125 0 L 1.03125 -9.125 L 2 -9.125 Z M 2 0 "/></g></g></g><g fill="#ffffff" fill-opacity="1"><g transform="translate(244.970825, 212.068419)"><g><path d="M 2 0 L 1.03125 0 L 1.03125 -6.421875 L 2 -6.421875 Z M 0.953125 -8.15625 C 0.953125 -8.382812 1.003906 -8.550781 1.109375 -8.65625 C 1.222656 -8.757812 1.363281 -8.8125 1.53125 -8.8125 C 1.6875 -8.8125 1.816406 -8.753906 1.921875 -8.640625 C 2.035156 -8.535156 2.09375 -8.375 2.09375 -8.15625 C 2.09375 -7.9375 2.035156 -7.773438 1.921875 -7.671875 C 1.816406 -7.566406 1.6875 -7.515625 1.53125 -7.515625 C 1.363281 -7.515625 1.222656 -7.566406 1.109375 -7.671875 C 1.003906 -7.773438 0.953125 -7.9375 0.953125 -8.15625 Z M 0.953125 -8.15625 "/></g></g></g><g fill="#ffffff" fill-opacity="1"><g transform="translate(249.674011, 212.068419)"><g><path d="M 3.59375 0.125 C 2.664062 0.125 1.945312 -0.160156 1.4375 -0.734375 C 0.925781 -1.304688 0.671875 -2.117188 0.671875 -3.171875 C 0.671875 -4.242188 0.929688 -5.070312 1.453125 -5.65625 C 1.972656 -6.25 2.707031 -6.546875 3.65625 -6.546875 C 3.96875 -6.546875 4.273438 -6.507812 4.578125 -6.4375 C 4.890625 -6.375 5.132812 -6.296875 5.3125 -6.203125 L 5.015625 -5.375 C 4.796875 -5.46875 4.5625 -5.539062 4.3125 -5.59375 C 4.0625 -5.644531 3.835938 -5.671875 3.640625 -5.671875 C 2.335938 -5.671875 1.6875 -4.84375 1.6875 -3.1875 C 1.6875 -2.394531 1.84375 -1.785156 2.15625 -1.359375 C 2.476562 -0.941406 2.953125 -0.734375 3.578125 -0.734375 C 4.109375 -0.734375 4.65625 -0.847656 5.21875 -1.078125 L 5.21875 -0.21875 C 4.789062 0.0078125 4.25 0.125 3.59375 0.125 Z M 3.59375 0.125 "/></g></g></g><g fill="#ffffff" fill-opacity="1"><g transform="translate(257.054935, 212.068419)"><g><path d="M 4.984375 0 L 4.78125 -0.921875 L 4.734375 -0.921875 C 4.421875 -0.515625 4.101562 -0.238281 3.78125 -0.09375 C 3.46875 0.0507812 3.070312 0.125 2.59375 0.125 C 1.957031 0.125 1.457031 -0.0390625 1.09375 -0.375 C 0.726562 -0.707031 0.546875 -1.175781 0.546875 -1.78125 C 0.546875 -3.070312 1.582031 -3.75 3.65625 -3.8125 L 4.75 -3.84375 L 4.75 -4.25 C 4.75 -4.75 4.640625 -5.117188 4.421875 -5.359375 C 4.210938 -5.597656 3.867188 -5.71875 3.390625 -5.71875 C 2.847656 -5.71875 2.242188 -5.554688 1.578125 -5.234375 L 1.265625 -5.984375 C 1.585938 -6.148438 1.9375 -6.28125 2.3125 -6.375 C 2.6875 -6.476562 3.066406 -6.53125 3.453125 -6.53125 C 4.210938 -6.53125 4.773438 -6.359375 5.140625 -6.015625 C 5.515625 -5.679688 5.703125 -5.140625 5.703125 -4.390625 L 5.703125 0 Z M 2.78125 -0.6875 C 3.382812 -0.6875 3.859375 -0.851562 4.203125 -1.1875 C 4.554688 -1.519531 4.734375 -1.984375 4.734375 -2.578125 L 4.734375 -3.15625 L 3.75 -3.125 C 2.976562 -3.09375 2.421875 -2.96875 2.078125 -2.75 C 1.742188 -2.539062 1.578125 -2.210938 1.578125 -1.765625 C 1.578125 -1.410156 1.679688 -1.140625 1.890625 -0.953125 C 2.097656 -0.773438 2.394531 -0.6875 2.78125 -0.6875 Z M 2.78125 -0.6875 "/></g></g></g><g fill="#ffffff" fill-opacity="1"><g transform="translate(265.396796, 212.068419)"><g><path d="M 3.109375 -0.6875 C 3.273438 -0.6875 3.4375 -0.695312 3.59375 -0.71875 C 3.757812 -0.75 3.890625 -0.773438 3.984375 -0.796875 L 3.984375 -0.0625 C 3.878906 -0.0078125 3.722656 0.03125 3.515625 0.0625 C 3.316406 0.101562 3.132812 0.125 2.96875 0.125 C 1.726562 0.125 1.109375 -0.53125 1.109375 -1.84375 L 1.109375 -5.671875 L 0.1875 -5.671875 L 0.1875 -6.140625 L 1.109375 -6.546875 L 1.515625 -7.90625 L 2.078125 -7.90625 L 2.078125 -6.421875 L 3.9375 -6.421875 L 3.9375 -5.671875 L 2.078125 -5.671875 L 2.078125 -1.890625 C 2.078125 -1.503906 2.164062 -1.207031 2.34375 -1 C 2.53125 -0.789062 2.785156 -0.6875 3.109375 -0.6875 Z M 3.109375 -0.6875 "/></g></g></g><g fill="#ffffff" fill-opacity="1"><g transform="translate(271.301158, 212.068419)"><g><path d="M 2 0 L 1.03125 0 L 1.03125 -6.421875 L 2 -6.421875 Z M 0.953125 -8.15625 C 0.953125 -8.382812 1.003906 -8.550781 1.109375 -8.65625 C 1.222656 -8.757812 1.363281 -8.8125 1.53125 -8.8125 C 1.6875 -8.8125 1.816406 -8.753906 1.921875 -8.640625 C 2.035156 -8.535156 2.09375 -8.375 2.09375 -8.15625 C 2.09375 -7.9375 2.035156 -7.773438 1.921875 -7.671875 C 1.816406 -7.566406 1.6875 -7.515625 1.53125 -7.515625 C 1.363281 -7.515625 1.222656 -7.566406 1.109375 -7.671875 C 1.003906 -7.773438 0.953125 -7.9375 0.953125 -8.15625 Z M 0.953125 -8.15625 "/></g></g></g><g fill="#ffffff" fill-opacity="1"><g transform="translate(276.004347, 212.068419)"><g><path d="M 6.578125 -3.21875 C 6.578125 -2.164062 6.3125 -1.34375 5.78125 -0.75 C 5.257812 -0.164062 4.53125 0.125 3.59375 0.125 C 3.019531 0.125 2.507812 -0.0078125 2.0625 -0.28125 C 1.625 -0.550781 1.28125 -0.9375 1.03125 -1.4375 C 0.789062 -1.945312 0.671875 -2.539062 0.671875 -3.21875 C 0.671875 -4.257812 0.929688 -5.070312 1.453125 -5.65625 C 1.984375 -6.25 2.710938 -6.546875 3.640625 -6.546875 C 4.535156 -6.546875 5.25 -6.242188 5.78125 -5.640625 C 6.3125 -5.046875 6.578125 -4.238281 6.578125 -3.21875 Z M 1.6875 -3.21875 C 1.6875 -2.394531 1.847656 -1.769531 2.171875 -1.34375 C 2.503906 -0.914062 2.988281 -0.703125 3.625 -0.703125 C 4.257812 -0.703125 4.738281 -0.914062 5.0625 -1.34375 C 5.394531 -1.769531 5.5625 -2.394531 5.5625 -3.21875 C 5.5625 -4.03125 5.394531 -4.648438 5.0625 -5.078125 C 4.738281 -5.503906 4.253906 -5.71875 3.609375 -5.71875 C 2.972656 -5.71875 2.492188 -5.503906 2.171875 -5.078125 C 1.847656 -4.660156 1.6875 -4.039062 1.6875 -3.21875 Z M 1.6875 -3.21875 "/></g></g></g><g fill="#ffffff" fill-opacity="1"><g transform="translate(284.920427, 212.068419)"><g><path d="M 5.421875 0 L 5.421875 -4.15625 C 5.421875 -4.675781 5.300781 -5.066406 5.0625 -5.328125 C 4.832031 -5.585938 4.460938 -5.71875 3.953125 -5.71875 C 3.273438 -5.71875 2.78125 -5.535156 2.46875 -5.171875 C 2.15625 -4.804688 2 -4.207031 2 -3.375 L 2 0 L 1.03125 0 L 1.03125 -6.421875 L 1.828125 -6.421875 L 1.984375 -5.546875 L 2.03125 -5.546875 C 2.226562 -5.859375 2.503906 -6.101562 2.859375 -6.28125 C 3.222656 -6.457031 3.625 -6.546875 4.0625 -6.546875 C 4.84375 -6.546875 5.425781 -6.359375 5.8125 -5.984375 C 6.207031 -5.609375 6.40625 -5.007812 6.40625 -4.1875 L 6.40625 0 Z M 5.421875 0 "/></g></g></g><g fill="#ffffff" fill-opacity="1"><g transform="translate(293.953694, 212.068419)"><g><path d="M 5.171875 -1.75 C 5.171875 -1.15625 4.945312 -0.691406 4.5 -0.359375 C 4.0625 -0.0351562 3.4375 0.125 2.625 0.125 C 1.78125 0.125 1.117188 -0.0078125 0.640625 -0.28125 L 0.640625 -1.1875 C 0.953125 -1.03125 1.28125 -0.90625 1.625 -0.8125 C 1.976562 -0.726562 2.320312 -0.6875 2.65625 -0.6875 C 3.164062 -0.6875 3.554688 -0.765625 3.828125 -0.921875 C 4.097656 -1.085938 4.234375 -1.335938 4.234375 -1.671875 C 4.234375 -1.921875 4.125 -2.132812 3.90625 -2.3125 C 3.695312 -2.488281 3.273438 -2.695312 2.640625 -2.9375 C 2.046875 -3.164062 1.617188 -3.363281 1.359375 -3.53125 C 1.109375 -3.695312 0.921875 -3.882812 0.796875 -4.09375 C 0.679688 -4.300781 0.625 -4.550781 0.625 -4.84375 C 0.625 -5.363281 0.835938 -5.773438 1.265625 -6.078125 C 1.691406 -6.390625 2.273438 -6.546875 3.015625 -6.546875 C 3.703125 -6.546875 4.378906 -6.40625 5.046875 -6.125 L 4.6875 -5.328125 C 4.050781 -5.585938 3.46875 -5.71875 2.9375 -5.71875 C 2.476562 -5.71875 2.128906 -5.644531 1.890625 -5.5 C 1.660156 -5.363281 1.546875 -5.164062 1.546875 -4.90625 C 1.546875 -4.738281 1.585938 -4.59375 1.671875 -4.46875 C 1.765625 -4.351562 1.90625 -4.238281 2.09375 -4.125 C 2.289062 -4.019531 2.671875 -3.863281 3.234375 -3.65625 C 3.992188 -3.375 4.503906 -3.09375 4.765625 -2.8125 C 5.035156 -2.53125 5.171875 -2.175781 5.171875 -1.75 Z M 5.171875 -1.75 "/></g></g></g></svg>